<mxfile host="app.diagrams.net" agent="Mozilla/5.0 (Macintosh; Intel Mac OS X 10_15_7) AppleWebKit/537.36 (KHTML, like Gecko) Chrome/131.0.0.0 Safari/537.36" version="26.0.6">
  <diagram name="Page-1" id="MfIcN6psVfjrLo10BOyw">
    <mxGraphModel dx="1129" dy="604" grid="1" gridSize="10" guides="1" tooltips="1" connect="1" arrows="1" fold="1" page="1" pageScale="1" pageWidth="850" pageHeight="1100" math="0" shadow="0">
      <root>
        <mxCell id="0" />
        <mxCell id="1" parent="0" />
        <mxCell id="W-8pl-CKNFdrs4j0YctX-3" value="" style="shape=image;verticalLabelPosition=bottom;labelBackgroundColor=default;verticalAlign=top;aspect=fixed;imageAspect=0;image=data:image/png,iVBORw0KGgoAAAANSUhEUgAACkoAAACsCAYAAAA+YmJqAAAKrGlDQ1BJQ0MgUHJvZmlsZQAASImVlwdUU9kWhs+96SGhJYQiJdRQBOkEkBJCC6AgHWyEJEAoIQYCiNgZHIERRUUEKzrSFByVImNFFAuDgL1OkEFFGQcLNlTeBRbBmbfee+vttfY6X3b2+c8+Z91z174AkJW5YnEqrAxAmihTEurnRY+OiaXjhgAEVAAZUAGDy8sQs0JCggBi0+Pf7f1tJBuxG5YTWv/+/381Fb4ggwcAFIJwPD+Dl4bwCcRf8MSSTABQ+5C4YXameII7EKZKkAIRvjvBiVM8PMHxk4wGkznhoWyEqQDgSVyuJBEAEh2J07N4iYgOyRNhaxFfKEJYjLB7Wlo6H+GjCJsiOUiMNKHPjP9OJ/FvmvFyTS43Uc5Te5k0vLcwQ5zKXf5/Hsf/trRU6fQaJoiTkiT+ocioipzZ3ZT0QDmL4ucHT7OQP5k/yUlS/4hp5mWwY6eZz/UOlM9NnR80zQlCX45cJ5MTPs2CDJ+waZakh8rXSpCwWdPMlcysK02JkMeTBBy5fm5SeNQ0Zwkj509zRkpY4EwOWx6XSEPl9QtEfl4z6/rK956W8d1+hRz53MykcH/53rkz9QtErBnNjGh5bXyBt89MToQ8X5zpJV9LnBoizxek+snjGVlh8rmZyAM5MzdEfobJ3ICQaQZskA5SEZcAOghCfnkDkCnIyZzYCDtdvFwiTEzKpLOQGyagc0Q8q9l0W2tbBwAm7uvU4/CWNnkPIdrVmdh6IgBuovHx8VMzscDPAJzQB4Aom4kx+gBQRJ77y1t4UknWVGzyLmEAESgh7wFNoAsMgSmwBLbAEbgCT+ADAkAwCAcxYAnggSSQhlSeDfLAWlAAisBmsB1UgL3gAKgBR8Ax0AJOgfPgErgGesAt8ADIwCB4CUbAezAGQRAOIkMUSBPSg4whC8gWYkLukA8UBIVCMVAclAiJICmUB62HiqBSqALaD9VCv0AnofPQFagXugf1Q0PQG+gzjIJJMBXWgU3gOTATZsGBcDi8GE6El8G5cD68CS6Hq+DDcDN8Hr4G34Jl8Et4FAVQCigaSh9liWKi2KhgVCwqASVBrUIVospQVagGVBuqE3UDJUMNoz6hsWgKmo62RLui/dERaB56GXoVuhhdga5BN6M70DfQ/egR9DcMGaONscC4YDiYaEwiJhtTgCnDHMI0YS5ibmEGMe+xWCwNy8A6Yf2xMdhk7ApsMXY3thF7DtuLHcCO4nA4TZwFzg0XjOPiMnEFuJ24w7izuD7cIO4jXgGvh7fF++Jj8SL8OnwZvg5/Bt+Hf4YfIygTjAkuhGACn7CcUEI4SGgjXCcMEsaIKkQG0Y0YTkwmriWWExuIF4kPiW8VFBQMFJwVFigIFdYolCscVbis0K/wiaRKMiexSYtIUtImUjXpHOke6S2ZTDYhe5JjyZnkTeRa8gXyY/JHRYqilSJHka+4WrFSsVmxT/GVEkHJWImltEQpV6lM6bjSdaVhZYKyiTJbmau8SrlS+aTyHeVRFYqKjUqwSppKsUqdyhWV56o4VRNVH1W+ar7qAdULqgMUFMWQwqbwKOspBykXKYNULJVB5VCTqUXUI9Ru6oiaqpq9WqRajlql2mk1GQ1FM6FxaKm0Etox2m3aZ3UddZa6QH2jeoN6n/oHjVkanhoCjUKNRo1bGp816Zo+mimaWzRbNB9pobXMtRZoZWvt0bqoNTyLOst1Fm9W4axjs+5rw9rm2qHaK7QPaHdpj+ro6vjpiHV26lzQGdal6XrqJutu0z2jO6RH0XPXE+pt0zur94KuRmfRU+nl9A76iL62vr++VH+/frf+mAHDIMJgnUGjwSNDoiHTMMFwm2G74YiRntE8ozyjeqP7xgRjpnGS8Q7jTuMPJgyTKJMNJi0mzxkaDA4jl1HPeGhKNvUwXWZaZXrTDGvGNEsx223WYw6bO5gnmVeaX7eALRwthBa7LXpnY2Y7zxbNrpp9x5JkybLMsqy37LeiWQVZrbNqsXo1x2hO7JwtczrnfLN2sE61Pmj9wEbVJsBmnU2bzRtbc1uebaXtTTuyna/dartWu9f2FvYC+z32dx0oDvMcNji0O3x1dHKUODY4DjkZOcU57XK6w6QyQ5jFzMvOGGcv59XOp5w/uTi6ZLocc/nL1dI1xbXO9flcxlzB3INzB9wM3Lhu+91k7nT3OPd97jIPfQ+uR5XHE09DT77nIc9nLDNWMusw65WXtZfEq8nrA9uFvZJ9zhvl7edd6N3to+oT4VPh89jXwDfRt953xM/Bb4XfOX+Mf6D/Fv87HB0Oj1PLGQlwClgZ0BFICgwLrAh8EmQeJAlqmwfPC5i3dd7D+cbzRfNbgkEwJ3hr8KMQRsiykF8XYBeELKhc8DTUJjQvtDOMErY0rC7sfbhXeEn4gwjTCGlEe6RS5KLI2sgPUd5RpVGy6DnRK6OvxWjFCGNaY3GxkbGHYkcX+izcvnBwkcOigkW3FzMW5yy+skRrSeqS00uVlnKXHo/DxEXF1cV94QZzq7ij8Zz4XfEjPDZvB+8l35O/jT8kcBOUCp4luCWUJjxPdEvcmjiU5JFUljQsZAsrhK+T/ZP3Jn9ICU6pThlPjUptTMOnxaWdFKmKUkQd6brpOem9YgtxgVi2zGXZ9mUjkkDJoQwoY3FGayYVaYy6pKbSH6T9We5ZlVkfsyOzj+eo5IhyupabL9+4/Fmub+7PK9AreCva8/Tz1ub1r2St3L8KWhW/qn214er81YNr/NbUrCWuTVn72zrrdaXr3q2PWt+Wr5O/Jn/gB78f6gsUCyQFdza4btj7I/pH4Y/dG+027tz4rZBfeLXIuqis6Esxr/jqTzY/lf80vilhU3eJY8mezdjNos23t3hsqSlVKc0tHdg6b2vzNvq2wm3vti/dfqXMvmzvDuIO6Q5ZeVB5606jnZt3fqlIqrhV6VXZuEt718ZdH3bzd/ft8dzTsFdnb9Hez/uE++7u99vfXGVSVXYAeyDrwNODkQc7f2b+XHtI61DRoa/VompZTWhNR61TbW2ddl1JPVwvrR86vOhwzxHvI60Nlg37G2mNRUfBUenRF7/E/XL7WOCx9uPM4w0njE/saqI0FTZDzcubR1qSWmStMa29JwNOtre5tjX9avVr9Sn9U5Wn1U6XnCGeyT8zfjb37Og58bnh84nnB9qXtj+4EH3hZseCju6LgRcvX/K9dKGT1Xn2stvlU1dcrpy8yrzacs3xWnOXQ1fTbw6/NXU7djdfd7re2uPc09Y7t/dMn0ff+RveNy7d5Ny8dmv+rd7bEbfv3ll0R3aXf/f5vdR7r+9n3R97sOYh5mHhI+VHZY+1H1f9bvZ7o8xRdrrfu7/rSdiTBwO8gZd/ZPzxZTD/Kflp2TO9Z7XPbZ+fGvId6nmx8MXgS/HLseGCP1X+3PXK9NWJvzz/6hqJHhl8LXk9/qb4rebb6nf279pHQ0Yfv097P/ah8KPmx5pPzE+dn6M+PxvL/oL7Uv7V7Gvbt8BvD8fTxsfFXAl3shVAIQ4nJADwphoAcgwAlB6kf1g41U9PGjT1DTBJ4D/xVM89aY4ANCDDRFvEPgfAUcRN1iDaiE+0ROGeALazk/t07zvZp08YFvli2ec9Qfe2Ll4D/mFTPfx3df9zBBOq9uCf478A94IHIHEw/8cAAACWZVhJZk1NACoAAAAIAAUBEgADAAAAAQABAAABGgAFAAAAAQAAAEoBGwAFAAAAAQAAAFIBKAADAAAAAQACAACHaQAEAAAAAQAAAFoAAAAAAAAAkAAAAAEAAACQAAAAAQADkoYABwAAABIAAACEoAIABAAAAAEAAApKoAMABAAAAAEAAACsAAAAAEFTQ0lJAAAAU2NyZWVuc2hvdIltXUMAAAAJcEhZcwAAFiUAABYlAUlSJPAAAALcaVRYdFhNTDpjb20uYWRvYmUueG1wAAAAAAA8eDp4bXBtZXRhIHhtbG5zOng9ImFkb2JlOm5zOm1ldGEvIiB4OnhtcHRrPSJYTVAgQ29yZSA2LjAuMCI+CiAgIDxyZGY6UkRGIHhtbG5zOnJkZj0iaHR0cDovL3d3dy53My5vcmcvMTk5OS8wMi8yMi1yZGYtc3ludGF4LW5zIyI+CiAgICAgIDxyZGY6RGVzY3JpcHRpb24gcmRmOmFib3V0PSIiCiAgICAgICAgICAgIHhtbG5zOmV4aWY9Imh0dHA6Ly9ucy5hZG9iZS5jb20vZXhpZi8xLjAvIgogICAgICAgICAgICB4bWxuczp0aWZmPSJodHRwOi8vbnMuYWRvYmUuY29tL3RpZmYvMS4wLyI+CiAgICAgICAgIDxleGlmOlVzZXJDb21tZW50PlNjcmVlbnNob3Q8L2V4aWY6VXNlckNvbW1lbnQ+CiAgICAgICAgIDxleGlmOlBpeGVsWERpbWVuc2lvbj4yNjM0PC9leGlmOlBpeGVsWERpbWVuc2lvbj4KICAgICAgICAgPGV4aWY6UGl4ZWxZRGltZW5zaW9uPjE3MjwvZXhpZjpQaXhlbFlEaW1lbnNpb24+CiAgICAgICAgIDx0aWZmOlJlc29sdXRpb25Vbml0PjI8L3RpZmY6UmVzb2x1dGlvblVuaXQ+CiAgICAgICAgIDx0aWZmOlhSZXNvbHV0aW9uPjE0NC8xPC90aWZmOlhSZXNvbHV0aW9uPgogICAgICAgICA8dGlmZjpZUmVzb2x1dGlvbj4xNDQvMTwvdGlmZjpZUmVzb2x1dGlvbj4KICAgICAgICAgPHRpZmY6T3JpZW50YXRpb24+MTwvdGlmZjpPcmllbnRhdGlvbj4KICAgICAgPC9yZGY6RGVzY3JpcHRpb24+CiAgIDwvcmRmOlJERj4KPC94OnhtcG1ldGE+Cog9t70AAEAASURBVHgB7J0HmBzVlbbv5CRpFJAsQAEt2OQksDGYIOzFRCMR1hhkggleYA0YzIKwTZIDwjZgAQbWBCMyLBhkkgB7JRGNSSIKDPygBBghaUajyUH//arn9lTXVIeZ6Z6uGb3neXqquuqGc997q6bD1+cUdKzvWG/yaO3t7aaxocmUlpaY0rLSPHpiTIdF0VDfYIpLik15eVlefVHn6+rqTVFRoamorMi7L/XrGowpMKaqqjLvvmi9aN0MGVqVd1+am5pNa2ubqRxSYQoLCvPqT0tzi2lpabXrpdyum6K8+iImYlNWXmpKSkry6gv3mOT4o3aPWb9+Pdd1YLq4rgNAOp9yXYdz0dGoXde8dug+V7x26M5ER3jtEM6F9yfhXHRU70947dCdD68dujPREV47hHPRUV47hLPhc4dwLtxjwrlwjwnnoqNRusdwXYfPE9d1OBeu63AuOhql65rvLMLnic8dwrnwuUM4lyh+7lBQWMB3kYHp4roOAOl8ynUdziWK1zV6h+5zxfuT7kx0hPcn4Vx4fxLORUd5TxDOhtcO4Vzca4f8KrvCfeMoBCAAAQhAAAIQgAAEIAABCEAAAhCAAAQgAAEIQAACEIAABCAAAQhAAAIQgAAEIAABCEAAAhDICgGEklnBSCMQgAAEIAABCEAAAhCAAAQgAAEIQAACEIAABCAAAQhAAAIQgAAEIAABCEAAAhCAAAQgAAEIRJEAQskozgo+QQACEIAABCAAAQhAAAIQgAAEIAABCEAAAhCAAAQgAAEIQAACEIAABCAAAQhAAAIQgAAEIJAVAggls4KRRiAAAQhAAAIQgAAEIAABCEAAAhCAAAQgAAEIQAACEIAABCAAAQhAAAIQgAAEIAABCEAAAhCIIgGEklGcFXyCAAQgAAEIQAACEIAABCAAAQhAAAIQgAAEIAABCEAAAhCAAAQgAAEIQAACEIAABCAAAQhAICsEEEpmBSONQAACEIAABCAAAQhAAAIQgAAEIAABCEAAAhCAAAQgAAEIQAACEIAABCAAAQhAAAIQgAAEIBBFAgglozgr+AQBCEAAAhCAAAQgAAEIQAACEIAABCAAAQhAAAIQgAAEIAABCEAAAhCAAAQgAAEIQAACEIBAVggglMwKRhqBAAQgAAEIQAACEIAABCAAAQhAAAIQgAAEIAABCEAAAhCAAAQgAAEIQAACEIAABCAAAQhAIIoEEEpGcVbwCQIQgAAEIAABCEAAAhCAAAQgAAEIQAACEIAABCAAAQhAAAIQgAAEIAABCEAAAhCAAAQgAIGsEEAomRWMNAIBCEAAAhCAAAQgAAEIQAACEIAABCAAAQhAAAIQgAAEIAABCEAAAhCAAAQgAAEIQAACEIBAFAkglIzirOATBCAAAQhAAAIQgAAEIAABCEAAAhCAAAQgAAEIQAACEIAABCAAAQhAAAIQgAAEIAABCEAAAlkhgFAyKxhpBAIQgAAEIAABCEAAAhCAAAQgAAEIQAACEIAABCAAAQhAAAIQgAAEIAABCEAAAhCAAAQgAIEoEkAoGcVZwScIQAACEIAABCAAAQhAAAIQgAAEIAABCEAAAhCAAAQgAAEIQAACEIAABCAAAQhAAAIQgAAEskIAoWRWMNIIBCAAAQhAAAIQgAAEIAABCEAAAhCAAAQgAAEIQAACEIAABCAAAQhAAAIQgAAEIAABCEAAAlEkgFAyirOCTxCAAAQgAAEIQAACEIAABCAAAQhAAAIQgAAEIAABCEAAAhCAAAQgAAEIQAACEIAABCAAAQhkhQBCyaxgpBEIQAACEIAABCAAAQhAAAIQgAAEIAABCEAAAhCAAAQgAAEIQAACEIAABCAAAQhAAAIQgAAEokgAoWQUZwWfIAABCEAAAhCAAAQgAAEIQAACEIAABCAAAQhAAAIQgAAEIAABCEAAAhCAAAQgAAEIQAACEMgKAYSSWcFIIxCAAAQgAAEIQAACEIAABCAAAQhAAAIQgAAEIAABCEAAAhCAAAQgAAEIQAACEIAABCAAAQhEkQBCySjOCj5BAAIQgAAEIAABCEAAAhCAAAQgAAEIQAACEIAABCAAAQhAAAIQgAAEIAABCEAAAhCAAAQgkBUCCCWzgpFGIAABCEAAAhCAAAQgAAEIQAACEIAABCAAAQhAAAIQgAAEIAABCEAAAhCAAAQgAAEIQAACEIgiAYSSUZwVfIIABCAAAQhAAAIQgAAEIAABCEAAAhCAAAQgAAEIQAACEIAABCAAAQhAAAIQgAAEIAABCEAgKwQK6usb1melpV42sn79etPR0WEKCgtMYUF+dZtR8kU429vbTUGB5VKYXy5R80XrRXNVVFTUy1WXvWqR8mW95dKx3lsvWjf5tI4I+RKl6zpKvmh9RO0eI5+4rkWhy6J0LUXJlyhdS1HyRSsnatd1VF7HROr/dZRex0To/zX3mK57v3+Pe4yfRuK+7ncyXjskconStRQlX6J0LUXJF60eXjskXkPuGa8dHInEbZSu6yj5EqXrOkq+aPVE6R7DdZ14PbtnUbqWouRLlK6lKPkSteuae4y7khO3kbrf8blD4uR0PovSdR0lX4SH6zp0yXjfo2uuIvEZCNd16CRF6VqKki9Ru665x4QuX+4x4VgM70/CwXCPCeeio5F6Hc53kaET5a7rgrVr6/IqlAz1joMQgAAEIAABCEAAAhCAAAQgAAEIQAACEIAABCAAAQhAAAIQgAAEIAABCEAAAhCAAAQgAAEIQCALBAqsYjKvQkkp9xsbmkxpaYkpLSvNwpB630SHRdFQ32CKS4pNeXlZ7xvKUs11dfX210GFpqKyIkst9r6Z+nUNxtgghVVVlb1vJEs1tV60boYMrcpSi71vprmp2bS2tpnKIRV5j4ja0txiWlpa7Xopz/uvysREbMrKS01JSUnvAWehJveY5BCjdo/RL1C4rhPni+s6kYd7xnXtSHTfRu265rVD9znitUN3JjrCa4dwLrw/Ceeio3p/wmuH7nx47dCdiY7w2iGci47y2iGcDZ87hHPhHhPOhXtMOBcdjdI9hus6fJ64rsO5cF2Hc9HRKF3XfGcRPk987hDOhc8dwrlE8XMHZSDku8jE+eK6TuThnnFdOxKJ2yhe1+gdEudIz3h/0p2JjvD+JJwL70/Cuego7wnC2fDaIZyLe+2Q/5zO4f5xFAIQgAAEIAABCEAAAhCAAAQgAAEIQAACEIAABCAAAQhAAAIQgAAEIAABCEAAAhCAAAQgAAEI9JkAQsk+I6QBCEAAAhCAAAQgAAEIQAACEIAABCAAAQhAAAIQgAAEIAABCEAAAhCAAAQgAAEIQAACEIAABKJKAKFkVGcGvyAAAQhAAAIQgAAEIAABCEAAAhCAAAQgAAEIQAACEIAABCAAAQhAAAIQgAAEIAABCEAAAhDoMwGEkn1GSAMQgAAEIAABCEAAAhCAAAQgAAEIQAACEIAABCAAAQhAAAIQgAAEIAABCEAAAhCAAAQgAAEIRJUAQsmozgx+QQACEIAABCAAAQhAAAIQgAAEIAABCEAAAhCAAAQgAAEIQAACEIAABCAAAQhAAAIQgAAEINBnAggl+4yQBiAAAQhAAAIQgAAEIAABCEAAAhCAAAQgAAEIQAACEIAABCAAAQhAAAIQgAAEIAABCEAAAhCIKoGCjvUd6/PpXHt7u2lsaDKlpSWmtKy0z64UmII+t0EDEIAABCAAAQhAAAIQgAAEIAABCEAAAhCAAAQgAAEIQAACEIAABCAAAQhAAAIQgAAEIACBDZHAetM3SWFLc4tpaWk1FZXlpqioKK8IW1vbTHNTsyGiZF6ngc4hAAEIQAACEIAABCAAAQhAAAIQgAAEIAABCEAAAhCAAAQgAAEIQAACEIAABCAAAQhAAAIQyCUBhJK5pEvbEIAABCAAAQhAAAIQgAAEIAABCEAAAhCAAAQgAAEIQAACEIAABCAAAQhAAAIQgAAEIAABCOSVAELJvOKncwhAAAIQgAAEIAABCEAAAhCAAAQgAAEIQAACEIAABCAAAQhAAAIQgAAEIAABCEAAAhCAAARySQChZC7p0jYEIAABCEAAAhCAAAQgAAEIQAACEIAABCAAAQhAAAIQgAAEIAABCEAAAhCAAAQgAAEIQAACeSWAUDKv+OkcAhCAAAQgAAEIQAACEIAABCAAAQhAAAIQgAAEIAABCEAAAhCAAAQgAAEIQAACEIAABCAAgVwSQCiZS7q0DQEIQAACEIAABCAAAQhAAAIQgAAEIAABCEAAAhCAAAQgAAEIQAACEIAABCAAAQhAAAIQgEBeCSCUzCt+OocABCAAAQhAAAIQgAAEIAABCEAAAhCAAAQgAAEIQAACEIAABCAAAQhAAAIQgAAEIAABCEAglwQQSuaSLm1DAAIQgAAEIAABCEAAAhCAAAQgAAEIQAACEIAABCAAAQhAAAIQgAAEIAABCEAAAhCAAAQgkFcCCCXzip/OIQABCEAAAhCAAAQgAAEIQAACEIAABCAAAQhAAAIQgAAEIAABCEAAAhCAAAQgAAEIQAACEMglAYSSuaRL2xCAAAQgAAEIQAACEIAABCAAAQhAAAIQgAAEIAABCEAAAhCAAAQgAAEIQAACEIAABCAAAQjklQBCybzip3MIQAACEIAABCAAAQhAAAIQgAAEIAABCEAAAhCAAAQgAAEIQAACEIAABCAAAQhAAAIQgAAEckkAoWQu6dI2BCAAAQhAAAIQgAAEIAABCEAAAhCAAAQgAAEIQAACEIAABCAAAQhAAAIQgAAEIAABCEAAAnklgFAyr/jpHAIQgAAEIAABCEAAAhCAAAQgAAEIQAACEIAABCAAAQhAAAIQgAAEIAABCEAAAhCAAAQgAIFcEkAomUu6tA0BCEAAAhCAAAQgAAEIQAACEIAABCAAAQhAAAIQgAAEIAABCEAAAhCAAAQgAAEIQAACEIBAXgkglMwrfjqHAAQgAAEIQAACEIAABCAAAQhAAAIQgAAEIAABCEAAAhCAAAQgAAEIQAACEIAABCAAAQhAIJcEEErmki5tQwACEIAABCAAAQhAAAIQgAAEIAABCEAAAhCAAAQgAAEIQAACEIAABCAAAQhAAAIQgAAEIJBXAggl84qfziEAAQhAAAIQgAAEIAABCEAAAhCAAAQgAAEIQAACEIAABCAAAQhAAAIQgAAEIAABCEAAAhDIJQGEkrmkS9sQgAAEIAABCEAAAhCAAAQgAAEIQAACEIAABCAAAQhAAAIQgAAEIAABCEAAAhCAAAQgAAEI5JUAQsm84qdzCEAAAhCAAAQgAAEIQAACEIAABCAAAQhAAAIQgAAEIAABCEAAAhCAAAQgAAEIQAACEIAABHJJAKFkLunSNgQgAAEIQAACEIAABCAAAQhAAAIQgAAEIAABCEAAAhCAAAQgAAEIQAACEIAABCAAAQhAAAJ5JVCc194HaOdrnnrCrPvbE6bp9ZcH6Ai6u138pY1N6Ve2NqOPP8mUbjq+ewGOQAACEIAABCCQFQJNze2mZl2zqWtoNe3tHaappd17ZKVxGoEABCAAAQhAAAIQgAAEBj2B8tIiU1xUYMpKi01FWZEZUlFihg8tG/TjZoAQgAAEIAABCEAAAhCAQO4INLzztmlY/LZpfu8d07F2rWn7bIVp+9enuetwA2q5sGqIKRwy1HsUbzLOlG+5janYeltTuc22GxAFhgqBgUWguW29aW3tMM2t603H+vWmrd2Y1vb18UEUFRSYQhuasLDAmNIS+xlNcYEpKi70tvFC7ESSQEHH+o6umcyDi+3t7aaxocmUlpaY0rLSPntQYOwqzJG1rFhmlp31n6Z12Uc56iEazVZ//xSz8RnnRMMZvIAABCAAAQgMcAJt9oX0F7WNpqau2W6bPXFkcEhF9pV0kf2iE4MABCAAAQhAAAIQgAAEIJCKQLv9UL69oyO0SPWQUrPR8HKzUXWFKbcCSgwCEIAABCAAAQhAAAIQgEAyAu1ra83qP/+vWbfgKdP60fumo6kxWVGO54hAYXmFKZn0ZTPsO0eYoV/fnYBWKThL1dRh/3yyJvZ+eMJGvOdNgYtTvSCgNVbX0G4amjtMi/1uV+utN1ZolZPlVjhZVV5oYj907U0r0amz3vSOgxtBS3OLaWlpNRWV5fa78Pxet62tbaa5qdkglHSzk2YrkeTHx0zdYF4gIJZMsyA4DQEIQAACEEhDQMLIz1Y1JIgjJYgcUV1mqsrsD0RsFJgqG/mlrCS/LwrTDIPTEIAABCAAAQhAAAIQgEAECbRZwWRDU6uNaNBh6uqbTW19i2lsaot7KtHk2FGV3iN+kB0IQAACEIAABCAAAQhAYIMnsPbFF8yq639vmhe/scGziBqAiq9+wwyb+h9mxH77R821fvNH2jRlZmtsUQS/9UZR/fSDQWen/U+rWfxR7HllhTEbb1Roxo0yZo+tisx2E4vMnluXuKJsIZARAa21mnVtNvtf+I9SM2okRaEhFcoEUmQqSgdmwByEkikmt7enBkpEyQ8O3Nu0rV7Z22EOyHpf+uXvN+h/wgNy0nAaAhCAAATyTkACyY8/rTO161o8X0qtEHL0iAozcli5qSznDVreJwgHIAABCEAAAhCAAAQgMEgJNLe0m7VWMLmypsGKJ2PvR8rsD7Q223gogslBOucMCwIQgAAEIAABCEAAApkSWPXAfWbNTdducJqHTPlEqVzxyNFmxMk/MqOO+G6U3MqZLxJHrq1v88SR6cRqfqFkmEMST07ZscgcsmuJOdg+MAgkI7Cusd2sXteeIMRNVjYbx5VZcOSQmGgyG+31VxsIJXNAeiAIJfWiYeVvLs7B6KPdZNnWO5hJt94bbSfxDgIQgAAEIBARAvqF27tL1sQFkkOrSs24MUPNMLvFIAABCEAAAhCAAAQgAAEI9CcBiSZXfF5nRZOx9HkIJvuTPn1BAAIQgAAEIAABCEAgOgQUQXLlb39hWpd9FB2n8CQjAhJMTrjpzkGbkrs3kfzSCSX9YMeMNObwPUrM9H1KzYTRhf5T7G/ABLTuVta29ptAMoi6tLjQfGlEiSkeIAkHB6VQsqGxMRaXNjg7/fXc9t7W1mYKbSrKwqK+35wqysuz7vmSH51sGl96LuvtDoQGJ/35SVO26fiB4Co+QgACEIAABPJGYPnn62wUyXX2RXWHQSCZt2mgYwhAAAIQgAAEIAABCEAgQCAomPzSyAobYXKYKS8bIJ/IB8bDUwhAAAIQgAAEIAABCEAgMwLta2vNZ9deZermEhgpM2LRLTV06lFm7I/ONkXDqqPrZA88641A0jXfE6Gkq6Pt6YeWmKP3QjDpZ7Kh7StyaU1dm6ltaI/E0EfY6JLDhxRHwpdUTij4YUtra6oiKc912O/OOzo6TFFRkSkozG/68fXWD32XX7B2bV1+hZIpkfX85NChQ3peKU2ND488aIP9hcXo8y81ow7fMEI6p1kGnIYABCAAAQh0I+CPIllkf/Txb+OqvRTb3QpyAAIQgAAEIAABCEAAAhCAQB4JSDD53tLVprGpzSi65FYTh5vhQ8vy6BFdQwACEIAABCAAAQhAAAK5ItDwzlvmk5+cTprtXAHOQ7uDIbpkNoRqvRVKasoUYfKcaaXm6L15L5yHJZzXLputzu9fNS15iyKZbPBKx73JyNJIR5dstSLJpqbmZEMYkMeLK4dU5NXx9rYO02yhlpQUm5Kykrz6kqzzjvp1yU5xHAIQgAAEIACBDZTAuoZW89b/W230heMI+wXjv40bYV/I5veXMBvoVDBsCEAAAhCAAAQgAAEIQCANAYkjd9hitFlu03GvsBHxX39/lZm48VAbXXJompqchgAEIAABCEAAAhCAAAQGEoGVt95k1vzpOtPR1DiQ3MbXNATaVq80Hx8zzYz++a/NiP32T1M6eqf7mu7YxioxBQUFZtyoArOq1pjPV/c8Htznq42ZcUuLee7ddnPeYeWk447eMsmJR2vr280qG0kyitbevt58srrFjK4uMRWl0fyOubi42FQO6X126FarUm1tbTPlFWVZyTLdl3lsb2u3+sQWU1xY0PsB9cUBV3d9YewGpptavn1xPrGFAAQgAAEIQAACqQh8UdNo3l1S64XnnmjT1o0dVZWqOOcgAAEIQAACEIAABCAAAQhEgsC4MUO9KPjvLVljlnxa5/mEWDISU4MTEIAABCAAAQhAAAIQ6DOBT6+50tTecWOf26GBaBLoaGow//r5j03Tu6eYjc84J5pOhnjVU6GaouxVlRWaspICU15aaCSSLLR6ItlNPyqN91Bb32HeXNpu3lrSbp634seX3uswDRnogx9+vt28+G69eeCCKsSScZqDc6dmXbtZsy6aIklHXGLJz6xYctTQIjOsKoKpuO2lZ69C526Pt9ICyqKgCWw3HZ4vEaTs+cUfCEAAAhCAAAQgEEkCn61qMO8tqTGxVNvDzejh+Y3OHUlIOAUBCEAAAhCAAAQgAAEIRJZAZXmJ2WbSKPPOR6sQS0Z2lnAMAhCAAAQgAAEIQAACPSOASLJnvAZyaSeGHQhiydVr20xtQ3ta3BJDDqss9oSRmUbWq64qNHturUeJOfWAWBePvtJq7n2mxSxcFBNEJetY0SX3v6je3HhmuVc/WTmOD1wCA0Ek6ae7qi52nURSLOl3dBDs9172OQgGzxAgAAEIQAACEIBATwgo3bYTSW49aSQiyZ7AoywEIAABCEAAAhCAAAQgEBkCSsUtsWRpSZEnlvy4M7pkZBzEEQhAAAIQgAAEIAABCEAgYwKIJDNGNWgKSiz5uU2zHmVbWZteJCmB5PAhxWb86FIzYkhRn9MPH7xLibntx1Xmmd9WmkP2KEqJR9Enp1/eZO5+pjllOU4OPAIDTSTpCEssua4xvbDYlWfbOwIIJXvHjVoQgAAEIAABCGxgBJqa282i91d5o5ZIsqqiZAMjwHAhAAEIQAACEIAABCAAgcFEICiWXP75usE0PMYCAQhAAAIQgAAEIACBDYLASiuWcxEGN4gBM8g4gdXXX2HqXnw+/jxKO4okmU7wNayyKC6QdKm1szWGCaOLzB9+WOkJJseMTN3qjJtbzLOLW1MX4uyAIaBU71FPt50KpgTGzW3rUxXhXB8JIJTsI0CqQwACEIAABCAw+Am02Reki97/wrS3d5iJGw9DJDn4p5wRQgACEIAABCAAAQhAYIMg4BdLfrh8rampI5LGBjHxDBICEIAABCAAAQhAYFAQaFmxzKz503WDYiwMoncEPj3vDKN1ECVTNL9U6baLbKDHsSNLzahhxSbbAskgBwkmX7pyqDnt0NTBT065usm8uaQtWJ3nA4xAmw3GuMYKJQe6/WtNq9FYsNwQQCiZG660CgEIQAACEIDAICLwwfIa09zSbjYdM8SMHVU1iEbGUCAAAQhAAAIQgAAEIACBDZ2AxJKbjxvuYXh3SY39MJ7IBRv6mmD8EIAABCAAAQhAAAIDg8DSk6ebjiabPxjbYAl0NDWYZWf9Z2TGryiSqaL5lRYXmE2sSLKitKBffZ5xeLm57MRSU1kR3q3ScJ84u9HU1vN+OJxQ9I922Kn7ZHWL6dDOALd2+7nMylqinOZqGotz1TDtQgACEIAABCAAgcFA4LNVDeZfqxtNaUmRGTdm6GAYEmOAAAQgAAEIQAACEIAABCCQQGBYVamZMHaYWfrZWvPRJ2vNl8dXJ5znCQQgAAEIQAACEIAABCAQLQKfXnOlaVu9MlpO4U1eCLQu+8hoPWx8xjl56d91qgh4q200yWQmkeTGo0pyHkUyWf/H7F1mtp9YZL47q9FIGBm0z1cbc8aNDea2Hw/cgCn1jc1m8fvLzDv/XGZWrl5rx9mUMMyJm44xE8eNMdt8ZbwZPXJYwrmB/qSmrs1mBhz4Ikk3D00tHWZtfZsZVoWszzHJ1hai2SJJOxCAAAQgAAEIDDoCTc3t5uNP67xxbTNp1KAbHwOCAAQgAAEIQAACEIAABCDgCGy8UZVZU9dkPllZb0YPLzfDh5a5U2whAAEIQAACEIAABCAAgQgRUKrl2jtujJBHuJJvAnX332lGHf4fpnTT8XlzRRHwkgnV8i2SdFC2n1hs7ptRkVQsuXBRh7lhXpM59YByV2VAbN+x4sgHHnvevPP+8pT++s9PHDfaHDhlF7PP17dNWWcgnJRIN1W694EwhjAfJTweUqkU9WFnOdZbAqTe7i056kEAAhCAAAQgMOgJfLa6IZ5yW+noMAhAAAIQgAAEIAABCEAAAoOZgIui/8Hy2sE8TMYGAQhAAAIQgAAEIACBAU1gxc/OHdD+43z2CSgFdz7XhVJuKwJemBXZr9e+NCJ/kSSDPkkseeHRpcHD8eez57YOmBTcEkj+Yva99nFfWpFkfICdO0uWrzQ33DHPnHHRjWbh398Onh5Qz/+1ZnCmqV5vA2SuWts2oOZiIDhLRMl+mqXC8gpTMunLve6t7V+fmnZf6OyS8ZNM4ZDk6T871tUZhVjGIAABCEAAAhDoHQFFk1xio0n2R8pthcJf5YXAb447O37T0aaqgggucSDsQAACEIAABCAAAQhAAAI5J6AU3KOHV5iVNY3ms1UNZuyoypz3SQcQgAAEIAABCEAAAhCAQOYEVj1wn2le/EbmFSi5wRDQuqh78XkzdLc9+n3MqVJubzKy1BQXRSskntJwv720w9zx1+4iNKXlvuGJZnP+4dGNKqnvFRVB8vH5r4bO9ehRw8zWW9j02nbrbOWqteaL1bXdBJVf2O8nJZh8+sW3zKnHHjjgUnJLpNvSFi7SdWMfyFuNb1hVkSmzqeux7BBAKJkdjmlbkUhy0q33pi2XrMCn11yZED578/sfS1bUO772xRfMJ2eemLIMJyEAAQhAAAIQSE7g40/XeiddRJXkJXt/5tU3PzBPPf2qWfrJStNg39QEbavNx5k9v7at+cZXB37Y++DYeA4BCEAAAhCAAAQgAAEIRJPApmOGekLJj+0PxxBKRnOO8AoCEIAABCAAAQhAYMMlsPbhBzbcwTPytAS+uH52vwslJeRKlnJ75NDiyIkkHcRffb/CvPBevflwWXeR3a1PtZpT9y8z1VXRE6ettMLGK/7nIbNkxUo3FG+70chh5qB9J5u9d9vOVFUmD8RS39BsXn7jA08Y6U/Frf2Zv7/XnPvDqWbiuDEJbUf5SU29zbs9yG2tHePoauR92ZpmSGaLJO1AAAIQgAAEIDCoCNSsa/GiSY4eUZH1cb37wXJz8z3z7C+3YmLMZB28++Fyo8dDT7xgpu2/O4LJZKA4DgEIQAACEIAABCAAAQhkjUBZaVE8qmRNXbMZPjT5FyxZ65SGIAABCEAAAhCAAAQgAIG0BBQsiWiSaTFt0AW0PhreedtUbtN/ATiSRZNUyu1qGwkvyjbzmFIz/fKmbi5GNaqkRJISM/q/X6y02emOPGh3c+C+u3QbR9gBiSj3+fq23kOpu6+/vev7SrWrNN4XnvXdASGWbGxZb1rbbH7qQW4SI48aVmwKo6fbHZDkEUoOyGnD6cFEYNGiRebss8/2hnTWWWeZadOmZX14NTU1Zs6cOUZ9yaqrq71+pkyZ4j3v65/2tbWmrS4m9ikeOswUDauON9myYplZ8bNzveeb/up3pnTT8fFz7EAAAhCIKgGlmGtuac9J9BRFkLzroQUJQ9/SRo7cZbstTEVnqu1GG11SAslX3/rAK6c3Jjfd/YT3xmeqFUxiEIAABCAAAQhAAAIQgAAEcklgoxGV8aiSOyGUzCVq2oYABCAAAQhAAAIQgEDGBGofvC/jshTccAnU/u2JfhNKpoomObq6NPKTsOfWJeaQPVrNI893j0oYtaiSSrcdFElu8+Vx5tTv23TZvhTbPYG+zZfHm2tmnmLmPDDfzOtM461+JJa87ILjIp+GW+tvQ7Ha+jYzYggSv2zMNxSzQbEXbaz49aWm5Z/vZFyz9aP3E8p+dMJR3vPh0080I/bbP+EcTwYOAQkYDzvsMPPxxx97TkvIKPHi8OHDszYItb3vvvvG+3ANz5492/z4xz82V111lTvU6+3nc26Op4av/v4pZuMzzom3JZGk+2WT9vuSgj7eKDsQgAAEckxAQknZ2FFDstqTIkPOtQ9n++092YsUqV97BW2/fSZ7wsgnrbBS4kqZ6ssQS3oY+AMBCEAAAhCAAAQgAAEI5IjAsKpSM9Q+am2k/bb29ZFNlZaj4dMsBCAAAQhAAAIQgMAAJVBbH4ssFsV0udlA2vjCwmw0E6k2CssrTMXuU0zT6y+b9tWJqYR766hrs+2zFfHvqXvb1kCsV3f/nQnf1+dyDHWN3dNWq7+y0kJTUTowwt+df1iZFUrGvhf0s1JUycdebTVH7xUNwedt989PiCSpqJCnfv8Av8u93j/+iH1Nlf2u8oHHYt9DOlHmLCuW1PGoWkPzhiOU1LU2IrtfW0d1WnPuV2HOe6CDUAISSUo8lumjo8nehX2mehW77IZI0sdkIO5KKOlEkvJfz13Ux2yNJ0wk6dpWBMtcW+GQoSm7UOhvCX/1WPHrS1KW5SQEIACB/iDQZF9U68tAfSmolHPZMqXb9oskTz56f3PMtCkmTCTp+txo5DCvzMyfHBsvJ7Hks/942xVhCwEIQGDAEFi6YmXCBzlRcjzKvkWFE4yiMhP4AQEIQKD/CEgsKftsVX3/dZrjnmpq15kTT53pPWpq63LcG82LAMyztw5gmT2WtAQBCEAAAgObQG3DevOjGxu8hxNGakRLV3aYr5+7zuzwX+vMs4tbB/YgQ7yv+es8E9QMhBQbUIcKyyvNxLvmmvGzrjT/du/DRgLHbNjon1/mtakAPlX7HpiNJgdUGx1NDabuxedz7nOb1ag1tYQLJQdS5LsJo4vMzl8Jl07d+0w07iUL//62efrFru8GY5EksyOSdAvlyIP2MEfYFN7OlO3u8fmvuKeR2zY0dZiO8OUXOV+z4VC7/RFr8waQZjwbrNK1QUTJdIQien64jdo31he1L6Ju4lYaAptttpnRw4kltZ+tdNjqWqJL17aeP/jgg17KbR3TQ/3l2sZecLH5xEaSlGBS+0FTym4XcTJ4jucQgAAE8kGgZl2z1+3IYeVZ7f7me+bF25NI8htf3Tb+PN3O+E1Hmxmnf9dcdMXtXtG75y4wO2+/Rd5/xaU3SUoXHuVfk6Vjm+q8xK033T3PbLXFeKM5wyAAgd4TePWtD801t8z1RN+/+fnJkbpvLLMCzovt/VXC9f7wTSzuenC+mWzv4xLMDwSL8vwNBH74CAEIQGCgEhhj02+v+HydqW/s/y+GPl7yibntrkc9dHvvOdlM2WuXrGCsqV1r5twda/ein55shlen/oFvVjrdwBvpC3O3Dha98U/z+lvvm4njx5pJEzYxhx6yj5lqHxua9YXlhsaK8UIAAv1HQCK1u59pNm8t6zDLV8Yi+an33bcq8iJwTRgdLjzJhoePvtJq1P/2E4u8R0/avPzPTWbZqvTqimtPqexJswOirASEj73cat5Ztt6s+GK92XSjAjPMDvPAycXmGzYFbS7nLFuAaus7zMPPxaKInXdYh6muigU8eHZxm1EEONljL7cZpdR19uaSdqPHhNEFCcfd+YGwrfvrE3lxc+jUo0zh0GGhfXfU1ZmmV180rcs+Cj2f7mDh6DGmbNPxXrGiYdWmbPvJpvGl59JVS3t+2G5fj5cp32obUz//8fjzDWVn7d+eNEN32yOnw21qCY/mV2QvyYESTdIBOvewUjP98ib3NL59z/5/0/+afEepvf+xLuGrgqwo3XaYKRLkPCtufMym0W6w+0FTXQkiFY0yzHRu8fvLzDvvL/dOK8LkPl/fLpIpuOub0/8fDxtjsmPznvw/71RFRbnZZ6+eXTuNjU3mzbcWmw/+30dmxSefee1U2nY22WSs2eLfJpntt9s6Wbc9Oq5gP2XFyPx6BC2kMARDoET90KjTfmJGn3BygpufXnOlGfK1r+f8n11CpzzJCoH58+eb3//+915bSoWdTVuyZEm8OQkwp02b5j2XQLI/RJLqTC9uSbcdnwZ2IACBAUCgpi72xmFYVfZCyT/30tvxKGoSSPZEJOmQSSyplNuKSqk3N3+16bjzkYJb4kilA9eY3JssvbHacvPxXhpx7Q8mW7VmrVm1unYwDSnpWO56aIE3p/kWhWpdyZcJds1/26anxwYJgfWdX5Z0fWcSmYHpwyOZ1l6jfeRa/N1gPzTRvcXdQ/sLhAShT9j7d2+urcry2P/E/vY5l2wk/nz1zQ/Mnl/b1my1+bhcdkXbEIAABAYsgdKSIqPHypoms+XE/h3G1dffa2Zff4/X6T7f2DlrQsn+HQW99YXA1dfdbWbOutms8UX+/Hjpp2bhc6+ZW63YdepBe5tbbrgIsWtfIFMXAhCAQB8JSGx461Ot9v1t94Ze+2eHue4vreY7exSZ8w4rz4n47sYnWoz6Of3Qkh4LJV94t92r293zxCPXnpL4fCA/k0jwwjubuo3789WxD2sWLmoxY0a2mCP3LDHnH57dIAL9xe3gXUvMfc/GfuRz6gGJqXIfs8JarUlFjfMLKPvLt2z00/LBe9lopsdtbHT8SXExY7LKdS++YD675Pwep85uW/axUfbBym22NS0rlpnWD/+ZrIseHf98zs1e6un2tbWm9t7belR3sBRu+efinA9lnY3oF2YVWczWFtZ+Lo7pvlBZ0dTtf5r+x725NFF4nYv+U7WpaJL6bs6ZxIyjR4V/F3flHx+Kixxdef9W7dxwxzzbXq2NHhkuBpQIc8as2+KfXyuq5HE2NXfUrLk1fP31xs8PPvzIPPHU/HjVr+062QaKyex/4cJnXjBPWJFlY1N3oa3afdqeHzFiuDns0IP6LJhsapFoN+4mO70kgFCyl+DyVW3MeTPNyCP+I6F7iSRr77jRE0omnODJgCAgwaITSmbb4TVr1sSb7C9hZLxDdiAAAQgMUALrbLSUoqICU1mevZdJ/lTZ06zYsbcm0dhTVuQioYrEiv0tlNQbqMuvu897Q7alFZVM2HSMFRGuNUtWfO4JJ9/7cJm5xKYJz7XIqLf8qJeawGtvfeDNbRSEkhLirlo9DqFk6ikbUGcVPfGMHxxqf3laHbl7xFZbjDPn26i9ssEm9vYvEglCe3ttiZHmT7+CHSz3+KWd/7s0NoNQ0r9U2IcABCCQQKDapt9eWdNo06m1m/J+/LJr7qML435IGKeIgjvt8JX4MXYGN4E5dz5qzr4g9sPyE4452BxrH5tN2NhL4321FdDOsdFG5z72tJdC/c93/3Zww2B0EIAABCJIQJG1jp/dEBfcSXh2wOQis52N7CirbbDR/Kwo7ZHn283D9vHiu/XmlrMqrJgxe5+3ZgvLIVbIefReXVEHs9Vu1NpR1M8ZN7d4blXazMbH71dixYJFnoBV6ar1uOqhFvP5auOJCZd90WGu/eHAi6ZZXVlgHvrp4FSQSPDX26iN2VyPawPpnKu23tYoEuTQ3XY3pTfdaZaePL3HYsmlPzjSlIyfZNpXfpa11OLSTjQs/GtW28wmx/5oq/WjD3LeTUuSNMBDKmL/D1I58PmqtWbxB8u8SIWjR1VHImLht3Yu8v5vBf0ORqgNns/188cXdKW/VsrtZNEg3/FFgkzn0/02UuTWXx5vtrGPoEmEeeC+k42iScqetkJNiSqj9LmwUm63Jll/wfFk8vwfL7+WUGzhs8+bA/b7ZsKxsCfznpxvBZaxSJSb/9tmnhByi80neSLL1atrbHRJ+2M/K5Rcs6bG3DLnLrP/t79p2+296LQxSar7MN84lpxA9F6RJvd1QJ/RPyIJGp21/+tTt5vxNkwkuXTG2aZhfiyV5+rbbzHr/vF3r702+4uLwWI1NTVemmhtJfbrreDPpZsePny414a2vTF/OzvttFPKJnpSNmVDvpOuTR1S/70dh6/JhF0/b7WdbowJlfPwRG8MmpcvN211taZ4aLX3i6M8uEGXEIDAICJQ39hmhtovA7NlEjW+++Fyr7nJ223RJxGO0sIqGqUTS0q42J+inodsNEv1KbGnX6SpY0qpu/STlXmLdJmt+aIdCEAgdwQkloyqeWK5qDoXEb+iPH8RQYQbEIAABAYlgcoKKxywQklF3h87qn++LF/wzCtGkQNlO273ZS/l8l+scLInQsmamjorqqvz2ths4ibetr/+KF20TGm9hw/vXWrvvvg/EOsG52bOnQ97hySSvPn6ixJO32Kfi60ijkosuehNK6LdPrmINl88/E5rTaRaD33xUf1kY835/WUfAhCAQDoCZ9wYE0lKcHfjmeWh0fkO3sVGJTys3RxxWYMnvjtxdqN54IKqtJEll34RS+NaXVHYL2lOJ2zUt+iC8nfCRskFQRKV1jbGIl6lKhfGvC91/e1JBOlEktO/VWyjRZZZtl0p0T2/bEbQY/YuM7NslNDrbdRFCVyHVTSYXx+b/vWfGKSar76Moy91/Qx6s9/fazGdj/WL30lXJOfnm5cvM5+ceVK3fkbabJhjbDZMZRkcftRxZtX1V3Qr4z9QNHK0KawakiD8zEQEWlheYYpGjzWFQ4aajnV1CfX97bv9TNp0ZdV2yaQvZ9Suq+O2Enlm6pOr0x/bjqaGeLTOXPQnoVp7e3j6oFRpt/Vj7rCoh0cetHvSCIfOfwkBFQ1Rdtzh+5pdd+z6vFnnFHlRJvFfUEzoUlcrGmMy22Or4lCh5PJVsft4snq5PL5SwUqWr4x3sfdu28X3gzsq60zfHR535L7dxI1X/HFuPFLky298ECqUVBsH7rtLXCipOXv59Q+6MXV95WPbnEWRpPxX5EfZJptsbD6x4sYPP/zYmP28Q0n/+EWS0w49sFu67pEjRhiJJrffbhtz8613ee0q8uQWVlCp470xJe5qs9ddsQ34g/WeAELJ3rPrUU39I9IvF3pj+sc87vrbuwnA/CJJtdv40nPeozd9ZKPOvvvuayTi66kpJfSf/vSnbtUuvfRSs2DBAu/hPymhpOpcfPHFaUWT8kfRGufMmWMkAPSbBIBKdX388cf7D3v7c+fO9c7picqcddZZRv6oLX87EhIqnfVVV12VIFgMKyu/TzjhBK8tv7gxrC/1O2lS7OYoPx988EGPg2Oi884cP7UvE7Mf/OAH3r7f14ceeqgby48+it3wVfjWW2/1OKm+39wYM+Htr+f2a/46z6y84tfeU704dmnjPzrhKNMWEAw3L37DvH/g3q6qt930iuu7rX2dWGtDuK+6/vdGdfxWbF9cVx00zQun7j/OPgQgAIFMCKxriKXlKMtipJSlNtWpsy0VtaqPttUW4z2hpJp510Zw3HPktn1sMfPqSz/53Cu8sxV8+k1vuE4++gAvpatLYes/r2NKFf7MP962oedjKW4nbDLaS3eaLA25v45S1I4aMcxo7BJpqr/L/3CfF9nsjBMPjXd1091PeGmyz/+v73qMnlj4qvcrRD135tp9xaZbVbuydL6ojOop7bnStKqefOhNunHXf29YZOqz0lYvs5HSTrJzoiiR8lliXQltNdb9bGRSv+BJ5+bOe94TwWqsYuvMz07H3v3Aln3ieU8Uq+eal/33mRwX8Kqv/fbZxUzebnOdjpuuA0VBfdf+QtTN50QbkVS++AVqEgGLjUzCW+fLeFv2mGlTvOP6o6h4itSqMrJM5tArmOJPX+Ym0/l0azRsbray6euPtmPU2pL5WUtwPd7OnWPtH4bOSaisSH+6Hvz1VM4/R/56/n2tbc1NGE//enK+aZ7cXCsls1sT8kUpjJXKOHhtOz+Dcyk/HHu/D87vnez9JuyXqtleA5ncUzTPy+yac9fS0dP29dJY+1m6/eCa1/wpCm+yqMJKi33XQ/O9+5xfiO7a0zZsLnTcP+durexl50DXlzPVFV9ZsmvLXW+67rUmNN7Rdj3quZs/t85cu27r1oRbQ5o/+bCHFff3x/zJj7B1lOzeoLF+0fk/QPem5zrvO8H7l34IoPPu3u/mPmyNOxZsIQABCAw2Akq9LWtr778vhm6z0QRlUw/e20zZc7IXWVBRBC+64BTveKo/C5551cy87I9eemZXTpEIp3xjsrnwgpONKXBHu7ZK8TzbpvquHjbEvPrcHV0nAnsSo33rkNO9o1dedraZesg+8RISuslHpQz3p4pW2vDjp3/HPg42hx9znnndivrOOu175szTvxeve86Mq4wiaE49eB9z5mlHmRNPm5ngvwqecPTBnv+pRJ+KwiiBoSJw+k0pqq+cdbbpad0RVoyouuKWqm4y5lMPsuM5/ahQ5n7/wvbfeOt97/Dee+4SdtpbC2Iuc9tgwZmX3ehFnnSiW53PdExhLLWOjrfCTc3dQrvOzrngKq/LD998KN61RL4nnf6L+HF/+vBbrrvIWwfxwnanLz6qHbd2/WOUnxfNOKVbX/5+2YcABCDQFwJ3Pd1sFi6KvS64b0bqKJETRhd5kSQPubjRE0v+5sGm0CiFEvLdMK/JPGjFef403puPLzSn7FdsjrYCPr+p7M1Ptpl1jeu9w0r/ff+zbfEiL105JL6frR1FyLz4zmaz6UaxiIX+tON3np8oFpW474Ynmj2fXFpr+SFhqaKVpUtF/ujLLebGJ1vjETvdGPbZqdD8cnpFWrGpK++2R1xW7+2q/q+PtU6ksBmHl5u6hvXmjr+2mTv/1m4O2rU1LoRdulLC11ie9Qd+WmHe/LjdXDG31Xy4LJb+PJiuW2vlPjsvSo/ut0zG8eziVvO7B2Op1V1dPz93LLgN+igRqNo6+8bm+HqRP189Z1286i1nlSdEO/XPrSs0ZqQx50wr7bYW3fn+2LZakWJUreZP15tRh/+HF1lypN06oWTZ1juYSbfe67mtgFKK8Djmv39uo0/uYVY9cJ9Z+ZuLvXOT/vxkPLX3u7tZ1W7AJKwce8ksU7n1draP2GenKtK+dq2peWqeWX3Ttd2iWI4+/1LrU+x7AX0n7b5P1vfIWzz+tNeDfFj78ANmo9PO8nzyd6tzYe26MtJvDDvy+2b08Scn+NRsg1l9fs1Vpn7+42arF2OpryUw/eiIb7uq/bptfDeW1jwXnSYTqpWVdgmxw/q97f75XmpoRUbc++vbmYaGJvPY/FdNqgiHakciwOtvV8rotV6z+izQmc79YvZ9VvQ3zn6+Xu2JKasqy8yuO8S+y5KAUtER994t9fdp208M933x0sT7mOu3P7Yvvx57b6S+9DlrUADq90Hj1Rj1Wa6EpxPHjfGf9vYlIpVAUlbf0MXQO+D7o77E8533l3tHJURN1bevar/stmQx7fabby32Ij4q1faPTj3R/PSiX3nCSYknkwkaFS3SRZIME0n6IYwcMdxr97dX/cHr5657/2wu+ulP/EV6tN/SilCyR8BCCheHHONQhAiEiSQVQW/5T8+xosjnI+Sp/eWqFSXq0VML1tHzww47zCxatCi0KZ2XqE+CPgkUJVQMs9mzZ5tLLrkkQdjoL6f2JVyU+FFCRCc0VBmlrHZ+SWwo4aH6DJrOOV9ee+01Tyy58847h/qu9uSPBIvz58+PCyuDfbk+XP96rrFIsBlm4qA+1aaL/uiv6+rIV79w0n9cvNVOmLkxapzyX4LJnlh77dr4i9O2utgLF9WXSLJ9dZd4yLUZPNZuI0X6Tet/xa8viUdS9Z/TfpttU6Lk+sceMhNsiPdS++slDAIQgECmBFo7v/wr6/wyMNN6qcp9sabrPjZhk+5vSlLVDTu3kRWfONObnf60xhT9jd90tBVL7t/NHYmFlK5bvko4I5HlqtW1nnBPAr3FVngXrKc3ui7Ft0RYEhjpTdlrVoQncdRJ39vfq+9EW65Tpf5WXUW+lMhHJpGPs2C7El42NDYZ+SgBm+qFpQ7Xm+xLrrjdvmFv9kRRalN15Iv6VMreoC+uT/822P/ONrqeWLj+JeyUIMkvKvLzE4sJlrNM7PQIqyORpM7dbYVRr1qhpPhJvKZxuHoSHToRlT6I0Dln/n13TFs/V82lOOjDCLGLiVKrvfa/YcVRfhMnlZF5vmyxrTdu+aaHP0LpSptuI76u7WfdzheJs5xpXBIuiYdj6Malum5crnwm22Rz49oN49ybuXFrNGxuHA+lN5agWMyCc65j8tUvpNOY5afWoJujsHph61vzd60VWaq+zF1r4u76cuvJz3GJXf9eHSs0kEhP60GCNJljlsxPfzvaV7mr/zTXinutANHOqbsunQ8bjXyh2zXmXwOufLJ+g/0le676wevYP19ac8Fr6WJ7X9D9SKI5v/nXvDcme/3J3D0jKCLVOc2FfBhlP8hLZmFzIYGiRJDqR/fhKnutLLH3AB2TuM+JnbVOVrnrPMm1pf5ljq/23T3Uv8503FnY/Omc80HcgvdI/zrN1vzJD///Ddeuu78G17/Wl/uftkr3Hfs/xjP9JLfT/Ne4/97l1pquA7+A29VjCwEIQGCwERiiiJLW6htjPyrrj/EtfO5Vr5vjjznERmTYxRNKrqldZyTIm7LX5KQuSHR26ayb4uclGJs4fqyR6O7Wux81C2y7t1x3Yfy82znOChldmudUfSx89jUv0uVmE8YmiCSdgNKJ1UZUDzETxm/sNS/Roh5Lln5iP5db69V3kS5d/3quuoveeM8TYmrf+b5k2af23Gdx///2yHWhokWJK5WOWqb+d7CROGXqW1EX9bh4xsndxKYSGR5+zH/HxZXBuuKmh7gdP/0Qr03/n1TMZ9+giI8LQ5n720i1X2s/Vwyz4XaMt9xwUdgpL7qiJ0rtFFs6ljV2Db3uWwsP3Pmb0CilfpbqwNUXS60vcT7LClrdfAedcMeDbPzlxP2bB5/m+ePvw++j2N1vfZxir4Ewm3lZzBfNmSKviol8VP8nnj7TW3OZiIvD2uYYBCAAgVQElJ5Z9h2bsjqTVNoqc+d55WbpF13vt/ztKyX0zLta7OdBsaMSRw6zWr4VNvWzBHgzbrGiwafazIMzKrtFmHR1/O3lar/Gih9josf15md3NHpCwrC+JPo84eoG63tsvGNGFnjiyrV2fBpPulTkP/pjoy0TE31KGLil5SGTuE8C1b0W1ZvTD7XROq2gMROTwFPptGW/nJ5ZnfNs29tOiL32Uyprvznh5w2Pt1ghZcxP/3m335dxSKh4nY1q6cwxfM/H76qTk4/F+ejqB8cgrn6rtcJQZ36//WtRDLUWtY4zZe/azNa25ZPY5zbZai+b7ShglL4DVgpuPcKsdJNxZswt9ySICsPKBY9JbDnh6htD60k0OeqI75ohX9+9Vym/VU/1w8y1u+SYqd3SgUu4qe+gFUEzaDo2ftaV5rNrYp8HBs/393OJSXNl7Ul+TJcq0J0+k3v6xbc9Md9pxx4Qd02CPgkdH7eCybBU0Cp4/6OxYA/6DFefBfrtsfmx1NQXnnWUd1gpvSWOlHBQfSqapOqliiapihL4h5m7j4ady/UxJ1RUPxPHxT6DT9anvlvyc/WX0+fPD1gOTiSpc5ulaU+puV3/EkpGyTp8n+P21a83346JmrfbdmsvZbbEkRJJfvD/kgsl53Wm2x5hRZD77JU8SqnzzRNhnnaS+eCDj7xDjfa7SR3rjWVz7L3pfzDUKR4MgxisY9A/2WA0PYnEPj7x6LShpAcqEwn8gpEpFTFxxx13NCNsaFqJ+ZygT2Ul8JNAUGX8FhQWuhTSKidhoqI4qr5MgknXjj/So3fS/vFHkVR9CSolHlQ914a2Z59tf5ltzzmBZ7KyOi//MhUcqi8nkpQQ0okh1Y7rS2XETREi5YMEoDL55XjpuHwKmuq5dnTOldNWxyXsdCahpBgpwmZfrXTzLU3HlzZOCGHuwpr72y6y6bT9FhQJ6wVy6Ve2MYVDh5q2Fcu9X+iovASTS0+ebibd+3DSF+X+dtmHAAQgIALNLbHULmUlA+MlkoQ8EW6gAABAAElEQVQr/WmKoPjFaone5pkzT5zaTVQU9EVvVq+xAij5qUh53/ZFN/POWYGWhEMS4viFX07sIsGbRHSK4CVTnWdt+bvnLvCeJ/vzlBUcqj315+qqbKp2JaKRLxKNOWGRa18RECU0POMnU+PtyZebLQcJZrQN1nF1/VvXv18YqPOOhSKxKfKmY+Ed7+SXqs4tVjznj6zp+lT0OAmUEiI2WjZ3WX4ar4v0puiSevz3L2/yfPndhSe7JuJbsZH4VII4RQ/1tykxlifKsqLHoGkMTvB3hl0z/no6J6GZfNHa0rljDrPrxEaolC8ShQa5SpQn4ZX8mHnusQnzobbkhxtX0JdUz/syN8nWtuazJ3MjDmJ88z1WIGnXfNicB3n5xySeqp/Kn+D6liBOa1gisOA1retIa8V/Dfn7077mI9ifBI+zrDjaP6/Bev7n8kF1gte7ysSZ+K4xjTPVGlCdf7fXvl9w7O+vN/uK5hq8lpxvuh9JsOv6c2te/QTZ6Jyifzohd298CdYRC9ml9npwQk/dcxUx0RP02TnStSVB+rs2uqPWeti15W9X0Vol2JXYMNX8q4449HT+3L1khhWGO5/Fxq1vCUndcb9fqfbdNax15Bcvql35qHuY/3rUfc7N4dH2vrOn7dNv3lx13n/Fzi9u1blZlq9Eqvr/1Rtxtr8v9iEAAQhAIJGAIvnFhIJdYkRFZZQA7C+PLkgqlFQ9J5Lcx0aPVARFf6ruOXc+YmbOutEcMf38xA7tMwnMXB+33/VIij4e9upOCUQ5VJRJ+SzB2s1WUDj1kCnxPj62Aslzzr/K803RDFOZxigRpsSQfnGcfP+JjV7oCeCsIPL/HrshoRkXlVD9X2TFkGeefnT8vOtfQknxUYRGv9h0pj2mfpP57sR4J9ooiRMnbJJQ1898mo2GecWsH1v/N4n37fxW3Z6ahJ7yS5E+D7Vtp4poGWxbQkcJIsXyZhvF0c/Sz+PfDznNvPzM7QltO5ZqU2JICQ2VMtuZEz86Ya07HrYVb3E5w7YjsaU/DbuiiKby8fCjbfRRO4Yjp5/XzUfXlxNs+n30jy9svl1dthCAAAR6S+DNJW1x0d1/7l+acTN7bhP74UWwgkSFTiSpKIPXnFKRkBJaEQklzJTA8PjZDeahn1Z5TZx6QLk51eprpv263hMQnrBf5sLBoA89fS6xjKItSij6vb1KvOiO1RUF8WYUvVFlFIHwqlMSI00q2uHP72zyBI/fndVo/v67IQniTwkEJZKUkO/MqSXmNDtOZ6p71zOtXlpsiQi/sXVRPNKjKxO2fdQKJWXim0wAFKwnYeExe6ee3wetnzt/xUb8tOtAEdj8DPoyDs25E0mq/V9ML0sQ5Lo1cco1TUG3kz6XWFdRRp0AU+JTt5b8lSQqdSLVYJRQl5K8J+z9bWdjvzXCQkmNr3joMG+Y0jKEmRMkKuJiwzvvmIaXXggrlnDMEyT6RJIrb73JrFvwlBeMp9h+x/yl8y7yshJKnCjh4keHfzuhfronTuioaJct773jfWddPHYT86UzzvEC8ej8qDNnxCNfuvb8IkmN9/M5N5umV170Tg/7zhGe+HKsbSMK1u4LYpRtf1rbu0TG/rZLS7ruif7j2nfREb/aGenRnZc48u5rf+KedttK9OgElqNHDYunhO5W0HdAQTJkT//9Le97j1O/f4BR3VSm+5/E2UHBteos/aLdKEptf9tKG2zDmYSLvTEJJBW10/+doj5/3XWH2A/skrXpj0ipz0QltnSfgyer01/HlX46G6bIkC+9/JrX1Nd23dnbbrftVp5Q8ulnXjAH7PfN0G5cqu4Dvh1+PqySIkt+7auxPsLOZ3os2bWXaX3KGVMIhGgScL9EqNym6wubgSSSlGBvvVVxBx867oR+jrw/9bWEeBL3ySTIkwhSD4kVJSzUvhMDeoXsH0V7lFDQmeqrHWfqT9EeVVdtqC21oWiUziQIlHgxzNS2RIPOF6UJVwRKteH3XREX1bbKuv5cWT33R770iy+XLFkS1m38mBubfFc7alMP7fvHoHJKMa7+XRm/fxJJuuNuq1TefpGk2tO4dF79uXH6fffPUdzJXuxMvPZGL9z66P/u+iV/yaQve8cUht09/NeAwpy7SKoSVX7pl7/3ym3604u9VNv6hY7Cs+v6kUksqRenGAQgAIF8EvBHwvNHl+ytT8E3Mr1tpzf1JNySQE2pZyVkkxBH4hO9QQozF41NAhO/SFJl9SZMIjiJcCT00RssmWtPwi2JXfwiHdWRDy5ynVch5M/UA3ZPEFiqyKtvfej5maxd15eERc4Xf9NKlRz0RcI/HXOpZv3lg/tuXGLhhJCujGOh534WEvGIbao6mg9FIpRgLWgSafmFiTq/nxUhTrZRPbWOlJY7U5MvMnEKtimRpcSTYebqhfni5lP1lLq5JxYUcKmto6dO8VjFo+Zl2GC6udE8y5LNTbK13dO50dqWIFdzo8ixYevECbI052GmNpL5o7XqhHOqq7WlscvPoEhS57VW5IP/nqPjfgu7thXVMJ2frg2tW41FPrhr0J3T1jEJ+q1zSt0evCbdGpBwL5vm+WHFhn5zvgWvJbfm082Fv62+7Gsetf71cCYuSguu+XEfCLpzmWx1veq69vMNq6eIi24NZTp/bj2pbb/P/ms42f+UMB90zN3fNV754Te1K6Gjrq1k90p/ebfv7r+aR7Xrt1ibsXueE6r6z7MPAQhAYLARcKm3G5tjPyrL9fjmPrLA68IvRlTqatltNpJfMBqjd8L+kQhSJpHk/z12fYJIUscVDfFvj15v98K/THGR95QCO6wPRY2UcE924QVdPyxywk4df/nZ2xNEkjom4eCf7/6tJ8T0p+TWuTCTj35hn8rIdwn+ZPJBYjhn8ssJRIMiSZXx96/nSkvuTHVn23ThMkUu9As8dUx1b7n+Ii/9tp7763rPO5lLDPjAXb/xyuu4M/n910eu9wSe7limWzcfEofuutex5qRTZ3oRRdPV13y4eQpj6eehKKVKl+7Mz1LRN6+cdU6CSFLl5FdYVFLXhn97gk3TLS6aTwk9neBS6bnn2CidsmQ+Sgwr8WrQx2D7QR/941NZCX8xCEAAAtkksKwzKqSEfJlEk0zX9+U2FbeiQkoQd9uPqxJEkqp7jE25fctZsfB/iqioFMpRMIkkr/1hpSdUlGimuir2dbtEfBJJyh64IHY+9iz2V0JFjVORCjVuped2JtGoEwhedHRpgkhSZVRXabG//+/FXhWlpc7EFndGttxjq+yKe4bYaZHY8OBdrFjUx6Cv43ARSzcfH0txHlxnWhNimwt7c0ns9a7W455bJ4p7xV7zJnurs1wufBiobQ7//inxoDU1Tz2RdBgSJErM+K+f/9gGvpmXtJw7MfLkH8UjSaquUnorhbayE2q79AdHWtHl215xiRorvrqnq5rxVlkMlamw8aXnvDbl17Kz/jNef/h++xt9J+2sat8D45EkW6zo86OjvuPVlz96KJ34h0ceZNOCd4nbXN18bBVkKEr28fLY57YSLCpCoVJp/2L2vUbpuBX5McwyiQjphJdq77YHbFs2g8zeu23XGU3yBe9zyCiljQ4bZ7Jj7vNUnR+dIhtRsvozLrvNS2vub0efzZ77w6lphaOb2c/g/ZYqVbe/3EDaV9RI2QgrYnRptr+262Qv2qOiPjpBpH9Mq9fUeCm0dWzTTcb6T7E/QAjE/qMPEGc3FDedSNL9ikHjdv9oW5fFLtSByEICRn/0QgkhJcjzRz+U0M+ZRHphERAlBJRoUVuZ2vWLHCXkc+LCYFmvQucfRWlU/8784kV3zG3VZpgvquOPQql+VTYoBnVjdWVVbsGCBa75tFsxUrtB0xj8YsietCkf5L8ziSRd5Ep3TFsx1Fy4Mamen7e/bK7319x0bbwL/YJnhH1xGjRdN2MvuTx+uO7+OyPzYjTuFDsQgEBkCTS5iJKl2fvgyC/qk6ikr/auTfXsbKMR1W63X7YShyiKn1LNSnAo8ZKiBTrRZFCsp6hksqBwyzmrN2NKxa03aE7Y9OqbH3qnJU5JZlP3Tx3GfisbnTBoiq4oC6bIdeXkyx9+9V/mT1ee0+0XcRLYaOxBU51R9rj8TyfsceOavN3mwWa852pLfcsH94u8pZ987p1LxkJ13HjChHMTAm9iXcc7bx/zIZ3PrrzmVWU15xJPhZnEk+IUNCfGdH4Gz0tQp3EHI0cGy7nnioSncatdRXPzm/qQIMqlJ/efS7Wfbm409/01N+M752xLG8kvzCRylSkFc5gFBV2ujJi5c25dubmR6DRsfauurl3VTWZB0awrl85PV87dzxRFNJm5NefWuFsDeq414Bc2uzWQzK9kfaQ7nuxacr75ryXH1fEOti2eTkgaPNeb57ru1L+iNPr9EANdD87HnrStCJmZmJuTVPP3jc605K6s1poYSHCfrflz9/dk91eNxV1bbv2nG58rp/9RYSa+ui/89ucnh53mGAQgAAEI9JKAhGqKfCg71qbddjb1kH3iorFFb7zvDse3Ep5JUCe75YYL48eDOxKRnXna94KHvecSszlh2m02gmPQJNKUKfKk2nF29XV3e7sSxfmPu/Nue9XlZ7vdpNtg2/6CjoGOLXwmJtjU/l+ssFOm6In+SJLeQd8fpam+xYotnehUp6620Rpl6jcozvROdP458/QYMwkQnYjUz1yRJJOZonoeb9n01OSPl2bcjktiQaX//paNALnRhH83hx/930aCyDBzQtt08+E4uHlVW0qtLtM6OG56cp8lABWzdHZGJ7dguds6fZ968N5J14yinEpkqTnbJxDB1LXnv0bcMbedZq8Z2YJnE98zufNsIQABCPSWgBOSbTyqILSJG+Y1eVEeFekx2eNuKyaUKd3xI8+3e/vnHlbqbcP+SCgn4ZrssZfbwor06ZjEiRNPqOv2UPTBZHbeYeGfldz3bMw/CSlTRW882UbAlN36VJfw87FXYsJHRaI82ooBk5nSYsskHFV0s3T2qU1hLnNiznTlMz1/zrTwOXPj2HxcQcpxuIik/nFICOuEprNTpNYWW0URzbZVd+ovleJbgs+gPTijwjzzu0pz9F7hYw+WH4zPi22q69HnXRp/jP3VVebLT71oXPREiQP93+X6Gax98QVPUOg/lm7fRaGUTkJixjD75CenmY9OOMp7tH74XliRpMfUbt3c2GtifyHpMepefN475KUTH90lhBp13Enxoit+dq4XtCd+oHNH9TfkQD4lqXJvdzJaaNNvK9W2okQqtfPjC141F1x2m1myvPvn3jfc/rj3uafSZieLCKmIlIoY+YWNvigB5nFHTDESRipdtyxdyu1Ot7zNphuF/4/zl+nPfYk++2JLAt9L7r3btubqS0+xabwTRZB96SMfddvS/wvMyC0XTdKJJFVJKbE33WRjr/4/OqNN+htbvXpN/OlImxUXG3gEigeey4Pb42QiSaUQVnS8KJsiESYzJ5LUVibBoMSOTnynY37xnYSBYcJElZNJvCdRnxP2SSCoCIiyhQtjHxBqX+JCJ07U86CpH4kzVV8CQO0H00qrvl+M6G9D5xRtUdEkZfIrVVmNV33J0kWS9Ap1/knWpk4rbbgTmPqjQ/rrh+2Lk8YsczzDyrljElJK6CrTeP3RLF2ZsG1HlkJ66wW0uwZ0nbgXx2F9Dt1td6OU3PrlTkdTg2lY/LYZultqUU1YOxyDAAQ2PALFnW/gvBTcVdkZv0QhekjAoshbitDmhHC96UFtyCQ0ybYYKBN/1K/ESHpoTBKoyCcv4ptN6epPT/uFTVktu9qmmk1mjU2xD0dj0TbHmZVrar2iG6X4ZVw6IVzYeScsm7BJdt/8VZUn/+DSP2YX1S3VuPzlte/Eo8lEbCrjBFz+XwPquExzlQ1r6Jwj11eyNkdpzqx41pnWh/xK5b8rm+lWY1LUQKU7VpptRX2TMHayFX8qfXdv+orS3Lg5SzYOdz6Ml+okq6fy7rpwgm0nMHTHw9pUf54YOPBhSlhZ/7FUfvrLOWGfRH5P2lTfYebuEW6Nq22JtTX/7iGxoO5JvV0DYf36jyVjVBG4xuSjW/Op5iLVOX+/mewr2q3SQOtaiF0P4zxxpAR+ve0n0/9RUZk/d39X2nqtiTALrqOwMv5j7v6bbO79ZdmHAAQgAIHsEXBCNYn+/OmhJRpT+mWlGlZUwyl73ZDQ6Rtv/tN7rnqpxIoqtPeeyX+gIRGlojM+9MjCbqJD9S2TSM5ZjRXwLbLpkWWpRGs6v+P2W1rfNo4LOnUsaJNs1MFUVm1TQEs06LcFz8ReQ+24/Vf8h7vti8tm0xPbX/RG7IvknWxdiVSTmfx2JqGq5ubpTgHejjZFdjrmUzvnzrWR6VZiyQ/fnGsjSb7iCUI1VqWjlphWD0UR9cSUPm46L5NfqcY00a4VmXgqQqfG4ESWWiPpxiQhootc6TUU8kdcw+z1zvU6JcVaVD0JJPdJERRps4ldX9gH+1GadAwCEIBALgnUWZFjmL21tMMT8IWdc8d23ypWV2m8nU0YXZhS9LeNjS74mv13/44VsGXbFB1ziC91tmvfiebcc7dV+WQiSAnsZNtOSD2e6qoCr5yiSrpUrs+9G1N8bJ2mrirKB9V9brFNA7tXkddWf//ZbmJ4v24c26QbRwyB57Ybh4vUmEnEUqUedxE4szV2CVRvfjIm1lQK9SP3LDEH7VIcj54qsWl1lr4zyJbP/d2ORIPJvp+V6FCRGN13uUHfmu13tT0xfc/rTN/zJjP1l6zPZHXc8ablXZ9lu2Nuu+4ff49/t1w4ZKg77KX61hOJQvU9dDKrf+whYyKSfjuZj7k63t4R/j/C359SaV941neNBI6KUvj4gle8dNqKBnnhWUfFiypltISUEveliwip8/4yEky6dN3+4/HGB8iOPg93n4331WWJSQcyC//4i8P/DfmLpN1X2m0XMXKfvXZPKL//fvt65956e7FRZEmJJ5359xubGhPOuTJso00AoWSE5mcgiyRTYQyKJCXK80codHX9Ir+pU6e6w0m3Eg/6hZIqKOGfX4yZSmDoGpbQ0YkX/T64834xpzvm32o8ztKV9QslnUjR1U21TSUa3XHHHVNVTXrOjVkFJBhNZ/JBwlD57Tj7x56sfluWhJL+F9DrG+q9XwYl61PH2//1afy0/8Vs/CA7EIAABEIIFBflJti2IotJCKQ3M3+1EdCCKXVDXAk9JEGiE6Yki3IVWjFHByXCcaJJCXQ0RqVQ3mqL7yb0qDdy6YQ3weiYmQqtEjpK8cSfAj1FsZyfyva4cu6w7cAJCfujr0z60JpTFEQn0lWkOj3EViJKne+J1XcKQQfi3PRknMGy7sOVdOPOVAwcbL8nzyus4Hi0vZ+ksok2oqkzRUmUcNetAYk/Fd1Wpgisvb3HuvYH0lb34d9deLJRBN9YivJlcQGpIlcGU1HnYmx9mb/X3vrQm8e+zJ+7vyuFe/r/NanXWS740CYEIAABCGROYM6dD3uF/Wm3Xe3jbFRCiRVdVEOXxljnJViUTRzfJejzDoT82Wxi8jJTD9nbE0oG+3DREyXETBRKdkX2GD58SEhviYcmjh+bUiiZWLr7s7D6LsJjMlFe91a6jtR2cpt9w71Gj56Yi+ApEWs623GHL6crkvK8BJMu4qVEjX+xQtaZVtAqH751yOnmFZvy3K0H59fZP/290aMn5liOsILUdFZd3fvXFDVrY+u1L22k9y/9vKRrg/MQgAAEwgiM3yj22ek6K9ILs19NLzfnHR4ukNn/QhvUwldvbUNXC3ud63vSdbhf9hSZ8PzOKI2ZdKiU08nMjW/WPa1Gj55YXSeChYs6zF6LssdDItCGxvWmtj67IlMn9gyO0Y3jYRst9OHnezaO2s7iW3amuA627X8+oXMt+o/1db+6ssBL633EZQ1eZEsJMfVQlM/dbOry8w4rtyLZ3Hx/0Fff+6u+FzEykFq79ZPlpumVF1OKBuVfX74vbq/tet2dzbG2Ll/Wo+aKbSAfZ/WL33G7odveijdDG+vDwUIbBbS/LQOdpI34uK8nkpRvVZVlXsTHx+e/6okiP7cRFMfY1NyxlNuxtNk9iQjpxqs03DLVVdCAp//+lrfd5+vbpfwsesUX4f/HXLv9vRUf91l+b76rOeKg3Y3YfnXHLXosklxpI3T6Tb4MJnvz7dh1PMKm3XYRJN349FyCSIkk33zrHfO1r052p+zxrhcDOm8IKhlnM1B2EEpGZKZKxk8y42b/jwmm2x4IkSRTIZTwUFEInShQwjp/2mx/XVdGx1JFgXR1VMYJ93RMAkknktTzTER8KlddbaMfdZrfB3csXTsTJ050RdP6ncm44o3leMc/1nRjdK6onBOTinWm9Vz9vmxb7AttZ4oSmepXOq6c27at6KrrjrGFAAQgkIpAe0d2PzhS+lqlGNWbmSftVsLJnkb6kkBSYkRnydIxu/O52DqRZpjv8kdCSQl1nG1kRSuqc+aJUzMe72ibTlyRvJSSd8+R4YI3FxHP9ZPJVlHxZEqnmo9InC7a4lKbMjmMX9gYVE789EhWR+3Jkp0Pa7enx1wUTtdXsvqrAm+a5ZNEePJfH0SkEzAlazfsuNp2Il2dl0hM14ciyqVKJR3WlltzA3Fu/ONJx1kp1GUuQp4TJnrX01f9LSXu+6/pxDN9fzbRplJ/7iWb4tum3tZ9sieWbA1oHSiyZD6uc633TNZ82D3MCVYb7bWSzFyU3rDz/utBc33T3fO8/ztinCwNeFg7PTkWlflz93etoz3t/9dsmNZXuvtvNvqhDQhAAAIDgUBLayy6UUVZFsI1pBiwov+5CH2KHhmMBqiohv7U2GFppp1gMkU3pramLulpRX1USmX5cfV195iLLjjFK+tSJYcJOJM21s8nnMivN93uaCNR72THnok5YaQTJmZS5+Mln2ZSLKMyivSouT/URnTcfPvDPLGkUqW79eDWSKo05sGO3FjcNnie5xCAAAQg0EVgTxvFTyZBoNIk77l1SddJu5cs4p7SGDsRoSIBBu073+h+LFhGz8clSfkdVjafx/bZqdAM64wamc6P6oqY8G5oZ9rnzW30TEVjzMTGZ5AedretCq1gsd3Me7XdnHpAJq1mp0xPxrFdYLxrk0Qs9Xum1O25MEULfenKoUYRT+9+usVGMV3vRUmNCT/rzemH9kxYm00fi4b2v+At6H/bWvtZ9W8uDh7eYJ532EA+zso2Hed2I70tzOG6KSwoCB17qq/XKjuFdmEptDcbN9oTSip9toSSV/zRRuW0pu8V7reRJZ259NwLrfBRUSNPO7b7zU0RK/XZ3oH7Tjbqc8Zlt3nfz6mPBx57wfzkh1PNrjts4ZpM2K6z4vIwc/frsHO5PDbRBgxw6bc/Xr6yx11JKNoboak6cv1qX/OQze941GZfLNn660mbC5+Jfef6ta/ubFavWdOt6nbbbm2UmvulVxYlCCVHWmGlE1EqImVQZNmtoSwfKAy/9LLcy+BurnhwD29gjE4iyc1uuccU+RT9De+8ZT75yem9DhUdhZErYqHSQjtBnkR1yUSS8teV64vvfiFib9rrTZ2++DvQ6vr55tN3RV8t/lLyCABB38q32iZ4iOcQgAAEQgkMqYh9uNfc0pX6JbRgDw9KADPt27ubu+Yu8N6MXd6ZolpCjExMb+hUR1uZRImZ1s2k/UzLXHzF7Z7//vTarq7zzYl9dHxLRf2zwkmXctyVdVvVudmKeWQ/smJKvcnaebvNveiAz1nhWzLBy7Od6cddO5lsJ9sv/yRWfe3ND0IFWRLy/camr9X20nOPzfobPicokg+Khhc0sVD6XJnr30Uilbg2LCqc6rhU7MlYBfvpzXMJ6zSvyz6xAlYrwAoToOl4mKBugo0CqOOLbMTHMLGW/H9wnk2fbdfKyUfvn9a9V230uVftHIrhZLtWnEkkJhFZTKybXGTryvu3Go8iUvZkbhTRVeXzPTf+cWg/WcRarZX3rPhYpmtBpvlQmmLNgUSKYfcUjTGXNn6TMV7zya5Lnbzmlr/Y+06TOXravp7I062Bre28+deUfw3kSxAtf7U2xFRrMdl1+5pdb0Fz/CUSDxMWaw718JtE5U/YOZLo1R9FU2v6mMP2tezmmsX22vRz8tfv634m86c1ptTYU/ffw7t36H4gYXPY/Ck9tsr3dP7c/T3V/w23jpSq3LFONX4x0xxqLv1sXR0nRhX78//ru+4wWwhAAAKDkkBTS0woWVaa24+Rr76+K6Lh4dPPS8kymBrbpRleuuxTG12yLh5dMKyRRfa1ZCpzKZXVhxNKLnwu9projNO/l1BVoj0nzHvapodOF9Xxjc600AmN9PHJZjbttISdLpJiT5rbcYeveKnDFa3xylnn9KSqTU091iufyZiWLP2sR21nUljsd7LptZX63D92RRVdU/u+0Tw68WQm7amMWMpee8Pmdk1jLn12mmKhp11k0NfffM+ePzi0DAchAAEIRJWARGQ7f6XQE47d80x3oWQyv+9+psU7pch8TlzpF8f96pgKK7Ic+N/6jxlZYCMRrjd72OiDpx7QlaIzGRf/8ViExA5PJHntKZ2qSX+BXu5/b68STyj52j87jASrmUREVDk3ZxK2ujnLxIVxVrypNOkSe/Z0HC5i6aerFAFzfco1sSzHEd+2n2hTbh8be/27dGW7ucuu9+s7I0xuN6HIHLxrokg4EzZ9LVO6ycAQ5vV1nK6+P3Ng5dbZ+WGsa7u3WwXyUVRNpSAvGzfeFJZXmA6bdjfM/KnDw87317HSHAo6S4rC79tt7eFCQ415s3FjvKFL7Ki0235TJEnZxM4yLoriEvsZqB5B0+eeegSFkrFIlM97nwEeOGUXT0ypz1VnzTjWa3vGrNtshMVXQoWSEmE7Yb+/v0obQDBf/6c2sqJRZxKG9qf5+5toRaZRsuIk6y9THyVwXLOmxiv+xJPzjR7JTGWD6bf33nN388RT843ElvvstUeyqgnH1Y4eMokzR47oXSjKkhxlR0xwdpA/yewnKYMcQj6Hl0wkufy04wa0SHLOnDkZR5J0/P0ppJcsWeIOJ91K1OgXNkqI6Rfy+c8lbcSeqK3tChmsNjYU6w0rF01SjPz1+4OZ/w1A5V7fNJNuvTfjx+gTTu4PF+kDAhAYBASKi2MvjZo7o6Zkc0j72UhXTqyiN2USPkqAkc4kxvCLJFVe6UXzYUrjKrvrofkJgh2Jepygyp8SXOIr+aoIb+6881t1rv7TXE9EN97+Is79Ek1iJ9WRmEapWP3CINW524polG63pybh0Fabj/PalfjFb67dpVYIKMGe88Vfpq/7mns3rrD+xWKVFfpJAOj6l/hRAkWxC/ITF9XRVm1nIvzJdAxac0GT0Fd28z3zrKjww4TTKq/jlTZ9ctAkjpJ54qfAhxmKqqe1oXGHRRPUfGhu/KY+dN3cHbIGJbaTuTTuYnPuL24yl3cKUP3t+PcznZu97Np0cyN/8zE3fr/D9sOutWRrRf7rmtYHTsF7jNrWmtO85dJSXZfqV+ORiFUfbrlImG4N6JzG5jcJB2WKZivLdA14hbP0R0J2tzaC17p/LoLdqY7uUZoP3ef85ur5j2lfkRQluhSLYJRKFwFW7Tpz9wldW9kwzZ9Eirpfh60Vtx41fyrrmf2cVNewygfnz9173PyJha7hi353e7d7gd//VOvI3d+1jvQrX8dA9d317Pr1t+nuv24M/nPyW/c83bvc/3X/efYhAAEIDDYCbe2xaPt9/RIiHZe5jy70ikiAp2iAyR4qFBMGfhJvcqoVxcnW2FTSii6YymZfd3eq0+a46d/xxI+vWwHegmdeNXPufNQT4u1oRXlhQsgd7HGZhJWpTO3Iv2zbPnvu4jX59LOveiLRZO2r/28edKo58dSZ8SI7bR/z/Tab0jyVzbVjU71zzr8qXkwRHWUak86nspmzbkx1OvRcUfVuRo+rU8xXdWfab38kSLcW0s2H2tWYZv66y7dDD97b88XNfahj9mCNjUrq1muyMqmOuzTi6bjPvOxGb87OmdHFPVW7nIMABCDQXwTOPazU60oR9u5+JvFzmzAfJLq79alYGuoTv90lLpPoUsITWbp2fnRjg9FDUSyjbN+eXOS5p+iNqeyGeU3eeGb9uUtgdeAuMVHe32xdiQST2aMvt3h1xSMTk8hR4lbZmTd29Zeq7uUPNnkpp5V2uqcprg/cJTbHvRmHEx9KpHTDE6nX1h+fiIlvU42jp+cefaXV3GWjSL65JHH+tFZn2PTs3//32Bw9/lp+1mEuIwP2lFV/lFfq6oZ3Yt+fVGyzrUkmPBz+/VPMplff4j2GTT0q566t+vP/xvsY8YPT4/vBnS+dd1HwUF6e51IoWVpSEDqm5rbk9zBFcdTnlY/ZVND6zNDZAzZipD5zU8AJ95ndz888ysy+9JRujwOnxL6nOu6IKd4514bbSgSpthRFUZErv1gV04Los0GZ2q9vCL/HKJpsmG05Pn+yqq/6Il9qXE5QGuZn2DGxPfPiG41SkQe/bwkr7z+WKJQc4z+V9/2+agX/YSNFyirKy80Wm2+W9OHWzT9ejv2A0g1c4kidk9hynhVMprPVq2vMXff+2RNXqu/eiiTVT1Fx+LWXzgfOdxGI/Ufves5ePxKo2vcAM35W4gcdiiQpkWSyXx+kcm/Tq282Q3eLfRld89d55rOfnZ2qeM7OSSR5wgknxNvfaaedzIMPPmjSiRAnTZoUr6NolMcff3z8edjOQw/Fwi3rnPqQqQ8J+JyIUu1MmTLFO5fsT1g7ycoOpuN+YaoYnHXWWSmHJ5GkX3zqmKeslMWT5b5fC9U/8bAxP70ki63TFAQgAIEYgfLSIlNkX13XN4W/GeorJxcxTyIRvaGREFAiDImuFJnLCTgkDlH0N0XOkwAlaEovLJOosD9NfkqMJpGNoksqWqBMz+XzePvcH0FNb3jPspEiZ9uoZhLFKPqeS+OsqGmqs6UVBvnrqL0ZNjqXoiuKk0RA/n6MfY99ko08eM2f/qKiPTJFElO7Yq6olEFfgv73qPE0hcXCjStZ/0EWWg8zTv9uAj8JiPRmVtEdZcE6adxIeVqCHwm7JJpzYtzfXXiyV0dC33ob7U3nFaVOrPSBgj7MkFhIfmy5eXU38a8ETMdMneJFU9WakRBMaciVptutbQnLnAhOnWncTtR63i9vsm9UrYCsM+Kk2pOfWhux9sbbN6Nl3jpx68kJsnQNOfFpqoFnOjf+qHL9PTep/Hfn5JPYuGstuFbC1rfYv2eFx7qG/9uyFneZu6Z1XsJkN1eur2xuz7D3CAnh/NeFf061FnXtONP8ai60Fp3PWlO6V7j7kIvaqnFoDWj99JdpHo62a173aTcm/1xoPM7/oE/uHuW/9+l61xh0HYy3HxQ6Majqau26aMX+60siSd0j1JdfhOy/tv7rZ39IuLaCvmT6XPfjL/5Q6wlrY/frMQnXZF/mT+suNn9dIuVkfjl2jrnu78F1FPxf464Xx1uMFYlT0WrF6owfTLX/a2L/v56xUTAnWFG/7l3+66O//w8nGz/HIQABCOSSQF197AskF30/F30tsNEYXVTAvz16vY1WuEnSbjbffppXVumwXcRHpYM+/piDzRwr+Js56yaztxUP7mSjJQZNwjOJ4FKZ2jrumEPM7OvvMX95dIFNAf6pV/ysQDRJ14Z8+NYhp3viTbXvfHLntVUa8d6IBf1tJNuXMHCzWWMtk888IeMtN3T/Qtb1L8ZOpKf2JAoVL4kdJYK88vLunyWr7jkXXOUxP8EydqY5cmnKTzp9ptlx+9vjERldGW3FxM2t/3i6fdf2bBtp9Ljph3SLEiq/JJiVab6dHTf9YHO1nTudSzUfZ1/we6/KLddd6Kp6bFy/GtPfHrmu25gkkjzptJm9GpPrSJEu5aO4J/PxdRvV8lI7N7Lj7fgxCEAAAlEiIOHdIXu0mUeebzMzbm7xRH3JoidK2Hj2jU32/boxSsV8WiDK4gn7lXiCvNlzW81Bu5SGRju8/M9N5uHnYsK186Z1/RhQTFy66lTCwv5k95/7l5o7/trmRdyU3+dbcV3QJMK77J6Y0G7WiTHRqcqI65iRTTYipTE/u7PRXPvD7lElJTq95K5mr8x39oiJMoPthz2/+pRys/9FDZ5fx/2+3vxyekUoa3H8jRVJPmJFsLLTbJppiQR7YgdboaQbx+VWCPrrYzMfR3VlgV1bRV7/EtceZMWjiuwYNLFVhMzeWrLU3o9boaQEwBKWPvTTqm7NL/0i1uew8vwIVIbstruJfSLczbVBe2DNQ/9rKq1IUrbJr35nlp483bRbAaUziSfHnnGOe2r+dcn58f1c7dQveMqYzgA9CtTTXrfW1NxxY7w7RZmUgNL5HT+Rp51cRuPUj+kKrX4wmGq73UaUVFTJsB/b6TuF447Y19xwxzxz5kU3ep9vCo0+19VnnT/54bQ4KaXfDjOXvrvSitSCZfR9xeNWhKnP9vb5emztuAiV86yAcpuvjPeEhsFolq6f5xbH7n/uudsqWm6+TP6LjRjJnn7xrYxTaSsF+f021bhs5aq3TZVNQy7+mZhLX+7KJktV7s7397a8tG/iVRfZcdrUg8zXdt05qfsPzn3MPP3sC+att99NiBwpkeT+++1rHvrL4zYa5f959Q+wz8NMIsmb59wVj2D5o9NODCuW8bEyhJIZs0pWsPuri2QlOZ5VAmEiyVUP/K9ZdfVlvRJJBp0rHFodPNQvzy+99FJzySWXxPuSmE7ptoPRB/9/e3cCJllZ33v8313V1Xv3zDQzMDDMQFgEFAERkW2Qa1RAkWUISAS3YBJMBIUnMuG5snhvFLJAVIJeRYVEkgsXQY0SrlnMcFFDMIobAyIOzALjDLP1XtVd1ff9ne63+1TVqe7q7qqupb/v8/RU1amzvOdzTp2p6v7V/33hhReCipOaUeFGzXP++efbX//1+C+p7rnnniC4VyiMp8CetuXbBRdM/aepkKZfj+aZLiipgOC/uzClb+rDYmky++hHPxqEH2Ugi7BjroM31fRwEDZ3vvk8TvdPfXMkdz1tRx8zWcJcpc133HO3rZimUuS2T95sGVf+fH/3Bjlx0MG5q+MxAgggUFCgozVu+/pTBT/IFVywyCcUltSHNF9pTIHJqEpcuatT5Td9GPLLVSIsqe1rWGgNm6pgif/GnwJYCiL5KnvhvivYo5CTwisK76iqlyrCaboqdkWFTOQTXkZhGS2jbSi4pWV94C5rWwqbumBQoab1fsL1X31X6CXcl6j+a3+1HVW8LNT8cwrkzNRy9yu8/UIWuX7eQsHEwsuM97dQnwJLt3yulWw1TT5RLfy8qtftcjOpf291IUode52b8vIVHf06FLI8wVXK1DmgoK32QeEpVaLTee2DjX5+3Sr0pGCthuxV07HwTa8hbUf9VIhv0AU4tT6tS3307Uc/ez64Gw6K+edybxfs2Eyco4WOjfyjDMP9ne6czD1GWk7nin/thNej++HXtLz9+aXjesHEUMn+W6bhPmu44bn0M6rv6oMCuf66kntMo64rufvpzymdA+HjrbC5Wvi8CCZE/KO+KXAZbkGA3R2TQq3Qa0nXNZlPnvO7x895BSTVP+2jtrdmImzu1597Hubul9bX7q6F4WOh15fflg+1+teDtqV1hpteW1qPAn9q4deW+jRdizIKn0NRr8mFOn7aT38e6Vz211dV3XzL2sMj/39S3//iv18ZVPDU8O5qOqa+6dp0y3VXTP7/pf3T8+HXh5+XWwQQQKCeBfyXyDrapv6QX+r9VehRTSG16UKSmkeBSAXIFIoMhxI1dPSGxxW43G4nnnGFve+yt9sVEwGzF11A8N77/jEIz/lApdZVqKmyoIKSqvjnq0CeecZ41ZLcZRQ8vGn9lUGf1C9VMrzGBeHWrF7pRrHpMw3RrGHFu7vb3b6tnFfALnfbeqxg55fuujEIa977D9+2p9z2bnLhzeMmqkV+89uPTYQh+4Lhsq8OBT617IP3/Xmw7Kc//7/dss8GfQ8vKwcFHVXp8+N/Ov4lKt8PhTLf/ParAvPXO/Pzzz1zzuZ+nf7WB1C17RNPv8JuXB/epw2BqeZVePNNoWOj8+dGdzwUhNTxeNEFXXUeqP97XTDxm65yqR/m/Tj3eSQ3hKjz6LffoX16OXC55qp32WuPPTLo1k+drffwgUrf39ncyr3YPp552uvy+jibbTEvAgggUC6Bv/n9VlvSNhSEAhX6+9J3Ruzi05vMD53cO5gxVVX0YTaFJO+5eqJ8ZKhTChL+4Jnx+dZ9asDeckLcLlvbFAxvOj7888i0oT0NgfzYUxl72IU2Vy8ftq628dDE764t3/uWUPfz7gaVB9/VZLc6E1Vj3OKCdRr6WsNdK4T4yH+NTlbXlMlla6c+g2plX76m1S65dSgI6z3xTJ9de0HCXrMmFng88sNxZwUpNYT5xy7MXjavM6EJ6tcD68fXvcF5rds8YCe74cHPeZ2s3ch7A2Y/35wO+uaHnFVIUlUU59L8ftz3r2n7j2f77ToXcF29vKGo/fjk5a32n8/0B2HQd9w0ZAqEylBt884xe+DxkeC8Wnt8Y3DsZ9M/DSOu4/L81jH74y8M2qlHjcckFO7UkLrhYcov+OSAqXqqP3Yaal7nmprO0Uq0mYZ6rkSfyr3Nvm/cb31vfmtQKKrZ/a33iH96zFQsKr2v1xKrVk0WkFI/Xv7s7QsyWmdy40+Dba2cCGgqqLn0ot+xoY3jv1PvfMOpbmjuLktt21Lxv0/Hli0Phgkv53FKuFHahlP5weWB4bR7XUVHkRRgVFDxwaCK5PjvKNe4v8Gcc9aJQQXImfq73P0O95gjVkXO+8OfPBc8t85Vk/RN21p37imm4N8//fuPgudVbTKq6f+kqHaau2ZWqilcutaZPeoCoGq6lZWmz9TCFSE1r4Y8L7bp+Pim370WCpf6eRb6tlBQt5h+/OznGydDi6omOV079jVHB0FJP2z24YcdOjm7qkpqSG4Nwa2w5H8++aMgdOnnUUBy28sv25NP/tiGhsd//3zZpRfNq5qkXnO0+QtEX53mv17WMI1Apyv7fNANN2fNoZDkzj+/MWtarT3IDUkqdPeVr3wlLyTp90thyXBToFE/Prh44YUXBgFKBSnDTSHJ97///eaX1/Ph6pOqjKigpebTujTvHXfckdcPPaegoG8K/+Vuyz9Xj7cKr37kIx+ZDLbKScOQhy39fstJlUJ9u+mmm/zded82dU798Tazc4elXbgx1pX9R2ptRNM6L77c9k18K2f35/4q2HZUWFJvhvXmWe3X333UlVufqrYaTOQfBBBAYBqBJZ3NQVBSlVOWds3tl0HTrD54SqEdhdx8iEZBr6imQIYCZm9zYRcFM3yrZFhSfVAIKCrg6PuXe6sPUb6aZu5zhR7PtMz1oQpzfh1Xf+Cd/m7BWwVjFKbSz0xNVQ6jthNeLrdCWfi5qPsz7VcplpmpT6q25yvu5W5vpmM73fMKgeknqk3utws5FtM0/3T7MV0//PpVtVQV47SuYtpkH4uZeWKe2S4z0zk6035pezOdkzOtI2r3plsm6jhMd6y1/qh+Rk0L92W6PoTn8/eLmV9VRRXu07ZnalGuMx2v6V5L2mZw3Ys454taLqLDUcdCs+n/hw8Xcf3TvJP90oOcFmXgZ6n24+f7Wcx54efVrfZrOrvpvMLr4T4CCCBQzwJ9Ayn3B5h4ZDWQUu33hu/9KFhVbmgtav2qGKgAnIJsGhrbh+QUPlM1Sh/cu8eFBvUTbtdcdakpKKiQ5XRN4cdwEE5hvOkCnD6wqX6pYuUHXDXCcFNIT33TUM/qd6mb+vuQCzxe+6e3B9u/6N0fy9uEAndf/vzH8yozhpdVFUZfpTG8Ar9sroEez2SuEKmO2Uzm4e3pfrhfMss11TwXvP1M+6tbp363q2lqqtiopmqZUeeBntM+PfQPf667WU2VSP/lW5+zde/+k+BYfdRV0wy3pe48u+NTH3HB165Iq/C8090vpo/avy997uPTrYbnEEAAgYoK/JkLtL16ddLu+HoqCLUpgJbbNLT2e13VyKtcpcXu9ug/7N/7kTa74atDQSDyvn8dNf2Em9Zx9fluHTnVKDXPH57dbA+64JzCg75Ko6ZXKiipbft+fsZVyVR1Qv3kNlUsvNeFInObqicq0PiBTw8F+7T+y6ncWYKQ5Nf+tM0F+GYX2tG6/+8n2uy2h5OBdaG+yfvGyxJ5Ic68jkwzIbwfCiV+6M7xcEh4ER+ezd0PVZXU/q37lCuY4o5rVD/f/ea4O/YJO+OpwfAqZ7yvqp1rj08FgcfwehXi1HP6uevDZjffN16x8t235fdbAdKoKpczbrxEMzQdeoQpqLeY2ssf+7ANvf+qyeI5S3777Kzd19+Vt995x+TfhbOeLNMD/7dqH5ZUiFM/vikkqeqXh7tgZyVb4rAjy775hKtsN5x/qbLB5Ji77hfevIbEvuqK7GNZeO7sZxS09NUis5+xIECoEGFuUzCyUDjSz6uAvg/4+2n+VqH1SjYNv+2Dkips8LVvf9/ec/FZM3ZJTo89MR7i1czFVoX0w5f7Dcxk5+db6NtCQd2Z+vGzX2wMZlEIcqYhsBV61E8QlPz1puB+eP1nv/W/2UEHrrSHv/lIEL4MQpMRQ3Ef9luH2IWueqXmnU8rNOT9fNa5GJeNp5IRV64FlMiMufETXUunM1aKvjQ3z5ycXsDdy9vUkss/mFUCWjPUQ0hSocVwJUntl4ZqPuGEE3S36KZg5VlnnRWEILVODcetwKUClN3d3cE6FdgLDwGt7YYDjrqvIJ8PQSo0qVCk1nHmmWcGYcDcSpJ+maI7Wicz+lCprGWqsKi8ZLVmzZpIb9mGvedLoW/8qAy5hptXpchNl55n3Ze+J1ht77cessMefGRyE3rDObjhX2xky6ZgmsKSKnHecuLJ1nTgKhtz5c373ePwhwQFk/2Q9JMr4g4CCCAwjUB3RyJ4treMQUltYDJ84UI0z/xqa1A5T0Mbq6limCoVKqgXrval53xltEqHJdUXGgLVKqDXlIaiUCCZtjgFVPVUFXvPf2t0eHdxqtTOXuvYcfxq53jRUwQQqF+B3b3jfxzWl8nK1TSEsqo8qmkY6ZmawnkKqqk6oNn475X9Mnru+Z99w1WP/JarLvmjYMjrJd2dbvjklfZOFzpT+E7LKbynpucKNYUfH3PrUFPQb6am+YNhn+9ylRndsMlq6s/xrz1iMrj3XjfUtfqw9vTsL22d7/qmapPHTVQuLLQtv7yv+BieT3bHuW1tcOHRb7iqlntdNUs1Bf/8vofnD9/XsvqR22yXDZv7ZedqHu6T7qtPquSp9aoyp1xz1527jH+sIOI73fJhj2KXlZk/j8L7pOk6xtpn9cWfR36butVxjJoensffn0sfl7iApl//dOev74cCxDQEEECgnAK/6yoi6ufbbsji7z09Ylt3jVmXq8yn756/xgXz3u6GTi4UkPT9UjDub9ww09dfmLbPP5q0p7eM///e5UZsPtVV8LrsjMIhSy375O2d9vePJV31xuz3BX79hW4vOT1upxw1ZqoyWEw7dk2jfciF5Lpdv2ZqCkuqSuHjG0ddZc1R63V5Pu3Pqp4GO/f144G8QutQCM/vk19W865yYb5zTmiyt7vl59oUSvTWj7hj9vMtGet1lS79MZupbzqWMlDrbm2cthvT7ce7XPVRhRILNfVTBjqv1M9t7tjm+u0bdAHMiL7M1Me/+0h7sN6fuyHQfVu939S+6Lgdu7ox8thd5iqVVjIkqf52vOktWX8D9ftQ7ttX7v2SNbrCNxn3d9jZtNHfvBxUX9Qyw//1RMFF/fqjZtDfjvX34N77/zb4+3GzG4FQLd3bZ8PP/ML6Hvxq5Gid/f/2HVfVcev4vK4fvmUGByb7lHr2aT8571b9VWEetXRoeT+jwpIDj3zd2s+9wNrf8MZgcmrrVku6dfpiPn7eSt12nPXWsm+6rSXmrnFTrye/QVWZzLjLcmODn1L9t49vzA/8q9eq4lvp176qOa49eSr0qMqYGpK7UGDUa2u5W9dfYU/+9Fd2iJu/mKCkRpLzw3VrPfpb5kzb8dtb6Nu25uiKpjP1Y9nSJcGw2b7y40zzrz39FFPQsbUluriOApf68VUnd+/Z6ypNDrmRoVpdMPKAIBxZ7LZm6ku72+eFbhn3Yh4diX59FNMXZQHVRkZGLT2af70oZh2lmkf7otbQ29s3u3eOpepBmdbT2Vn6D//PnbPW0rt3zrvHUSFJ/Qfrv3Uw3w2Eq+b1PvEDe+nqD8x3lbb8+lus56JLZlyPDzXOOGPEDArdbdq0afIZrcuHJScnFrijSpGqihjVFKAMD88dNY+mafsa+lu3viksqAqLagoPKsBZqM1m3nDVTfVPocOoadpWQ0PD5CbHJgLFkxNCd8L22oewZTF9m423+qt+57bwedztwsD+GzSab7rn/Hp2umG0d01UiPTT/O3yj7lzcN3UOZh038LZes0fTIYl/XxRt1FD3EfNxzQEEEAgV+Dxn2x3k8bs9UcfkPtU1TxWNUofllSnfu9db5tVlceq2RE6gkAZBDTk8veefHraSnFl2GxFVqkw2Z/8z7uDX1hoGGHauIDCsv/shmCerlogVtUrwPGr3mNDzxBAYHEJ/HrbXtu5Z8iOO6LHyhmWXFyq7C0CCCCAAAIIIIAAAnMTSG7dYpvWlT/8NrfesVSuwFFPjFetG3r6F/bi+y/Ofbrsjw996DtZlS7LtcEXdyQtM56DytrEko6YLe2IZ02r5gcnXdsXVLLN7eN5p8bsThfor3RTJcmrb/xiUCBCfdHQ2x+/5pIgMFmqvikk+Ym/vj/4Artf52du+WDkMOf++UrejqbHbMvOyhYGXOj9X7N/84IHkEdcSHK4wMiIC73/pdpevLUtOvVaqg3MtJ6MS48mkymLN8Wtyf3Ua2s96bS8SpIqBd3xhlOCn/B+v/yxP5r85kNs2XJbft0NFuvMH4o4vIzutx1dHxVzFPZTcFGBvA0bNpiCfLlNFQ8Vkjz++ONzn5p8rOUVclTgURUlc5uGnlZFRQUtdX+xNh+uVKhSoc1C3gpJyr0cbfn7rrS0+xbS3olhtf02VGkyt6l0uapM7vraA7b77jsjQ8zNR7/W9rvqGipJ5uLxGAEEihY4oKfVtu0YcN+oTblv1I5XmCx64QWakcqSCwTNZmpSYLqhjWtyh+j0rAWOOnyV6YdWmwIcv9o8bvQaAQTqT2B3b9KaEzFCkvV3aNkjBBBAAAEEEEAAgRoUaF7lhnh2fwMNj6xXg7tR012Wf9d564J96P/ud2zoye9F7o/m8y350hZ/d8Futf3wcODl3HBHgaqS+wbSrqpwfMFDXXPZV1Um3rE7esnrzi/fCAvRW4yeqmDkdb9/vv2PTz8QzKDgpO5f66apcuR8W1RIct25p1RtSFL7G481WEtiblUl5+tVieU7WmMVeT3FYjGbT65QlSRH3U9zc8IaYwtfETN8rNLptBvpesQaMmMTtSXDzy7gfXVkaHDYEokmSziY+bYGm6rCN991+eVLUVGy/axz7OBbx8sz+/UWut30vksn3+DoP7FD77m/0KwFpy90RcmCHSnBEwo5alho/SjQqLDebIONWlZDgfsQoAKW04UsS9Dtml2Fd5qP91x3Pt3ba4Mbf2Ep940oDcnddvRrLNbVNe3qBt23cFLuDWZ6X6/F3PAzCgwnXJiShgACCMxHYE9f0n763C7rdCHJYw7tmc+qyr5sbmXJD7//naaQGA0BBBaHABUlF8dxZi8RQAABBBBYaAFVklRFyTUr3dDV7qcc7YXNL9lhx15YjlWzTgQQCAmcedoJ9m+PfD40hbsIIIAAeTBqrgAAI5pJREFUAgggUKsC043SV6v7VEv9jh98iB3+4D8FXdYoiJuvfHdeUR8VAlrz99+YDCpuWf9RG/juowu6m7kjNpZz48mRMXtpV3RVv1qpKlmomuQJRzba129oLyffrNf94CPft6898oOs5S52gcZ1556aNW02Dzb8xy/sb7/23clqlVpWw23/4eVnz2Y1FZl3T3/a9vaPVmTbC73R/Zc0WVvLwgcNx9wIjPNpKVc4MZUaCcKWCl1Wsim0mXTVMeu3hGMlddl2SQVKUcXQByxL2rE6XVklQ6QKRXaefIqZfopsbce82vRDQwABBEopsLSz2bo7EravP2WDw6PujWf1vmXKrSyp4YYJSpbybGBdCFS3QJv7Jun1H7okGGqjuntK7xBAAAEEEECglgS27ugLuntAT/mGGFvivvD6r9+6q5ZY6CsCNSmwpLs8YeeaxKDTCCCAAAII1LjAsot+x/Z85a7J0SlrfHdqrvujW16wvie+H4xqqIqNq+++z16598uW+uXTwb7EDzjIet7ze5MhyZQLUy50SFIjlvasu2TBbJubClf1U1XJzta4q/y3YN2Z9YZue2i4YDXJS0+vvr8NXjwRiAyHJR90wcl/d2FHPaeAY7Ht6ee2uNDl9+3p57ZmLVIrIUl1urstZr2Do5HDv2ftVI0/UL6wEiHJGmcr2P3qe2UX7GptPzG6fZv1uv80i2np37w8OVu6v7fo5SYXcneSG8f/Mw5P4z4CCCCAAAIIFC+gyimqKvnyrn477KAlxS9YgTl9WPLZX22x0046pgI9YJMIIFApAQUlGWK6UvpsFwEEEEAAgfoUUDXJ1EjaDuhpdcNYle8vWku6O+xNZ5xYn4jsFQIIIIAAAggggAACZRCIdXVb58WX276vfrEMa2eVxQj85ub11uwCkhrhUGHJg264KXIxhSRVcXKhW/el71noTdqSjrht351fVXLMFaLbuW/EVi5rWvA+FbPBzTszdtc3RyJnXbHM7LK11THsdm4HFYjUUNwKSA66IbjVNPLU57/6qJv2/WAo7pOOO9yWL+uyNatWTC6+Y1evm2+fbXQBSYUkcwOSmlHDbfsw5uSCVXyn0RVY7GqL131VyWXuNUYrnQBDbxdhWYqht4vYTFXOsvz6W6znooX7xkFVItApBBBAAIFFK/DUL18Jqkoe7Ybf7nLDcNMQQAABBBBAAAEEEEAAgXoX+PGzO4Kg5Mmv2b+sQcl6d2T/EEAAAQQQQAABBBAoh0C6d589f95ZVJUsB+4s1tl+1tmueuSVeSMf6vjsuPdL1vfgVxf8GKmapKpcKsC50O03e0ZsMJmJ3OzSjlgQpox8skIT9w2M2W9/vL9gNclbP5Co2qCkJ9vpgo+f+PT9QUjST5vr7X4uVHnVFWcHIcu5rqNSy2XcabfllWTdVpVUNcnVyysX2mXo7Uqd2WwXAQQQQAABBBCogICvKqlh545xYUkaAggggAACCCCAAAIIIFDPAvrso2qSB61oJyRZzweafUMAAQQQQAABBBCoWQGqSlbHodOQ2vppbGm1pkOPCDo16kYOTe/eWbEOLrvyjysSktQO93TFbXhXKi+s1jc0ZrfcP2xve12TXXZG5cJeuQflw18cLBiSPO/UWNWHJLU/y3u67LOf+KBtcMNuq5KkqkrOtmnEqnPOep2d86YTrb2teo7PbPaj3qtKUk1yNmdDcfNSn7M4J+ZCAAEEEEAAgUUosLSz2fbrbrZX9iVt+64BN/Rc+yJUYJcRQAABBBBAAAEEEEBgMQgkU2nbtqPfmt1w26tWdCyGXWYfEUAAAQQQQAABBBCoSYEV7/0963/k6xUN5dUkXBk6nRkesuTGn5ZhzbNbpapJ9qyr3Eih8ViDLWmP2+6+0cmOb9s9Zuv/dsS2bDf77o/Hh+auhrDkH39hyDY8FV39UkNuf+zC2goMnvnGV5t+NJy2QpMvbtthL24tHNhVwPLoww8OljnmiIWvPjp5gpTwTndbzPqGRi2dLuFKq2BVzYlG62h1JSVpJRUgKFlSTlaGAAIIIIAAAvUm8KpDltqen+8wVVbpam+2thbePtXbMWZ/EEAAAQQQQAABBBBAwOzpTbsChkNWdlJNkhMCAQQQQAABBBBAAIEqFlBVyQNuvs22Xf2BKu4lXVtIAQ25XenW3R4Lht8eTmXsmW0Zu+HvRm333qlerf9S5cOSCkn+4/enwpxTvRu/d+0FCTfMcW0G0xR69MHHgcFkEJjUXu10lSZVOXKFG157v2XdNVs5MvdYhR+rquTy7oRt3z1+joWfq9X72qcV3fxNuhzHD9VyqLJOBBBAAAEEEKgbgXis0V79W0vtp8/tsmdf3G3HHr7c9M04GgIIIIAAAggggAACCCBQLwIvvrxvcsjtA3ra6mW32A8EEEAAAQQQQAABBOpWoPPkU6zr/Eut9xv31+0+smPFCSy5/IMVG3I7t4f7L2myzz86aLc9EF3aT2HJzTvH7PqLWnIXLevjzTsz9r7PDNrzW8YKbueqd7rhwdfWVjXJQjujYbR9aLLQPPU2vTXRYF1tcesdLByEraV9VoVW/h5dniPmMqg0BBBAAAEEEEAAgekENAT3GldVJTWStl9u3j3drDyHAAIIIIAAAggggAACCNSUgKrnb981GAy5ffiq7prqO51FAAEEEEAAAQQQQGAxCxx4w83WfPRrFzPBot/31pNOswM+fG3VOKgK3jtOcqOztRbu0l3fHLELPjngApPRw18XXnJuz3z7hyl7240D04Ykzzy+0dYvcHhzbnvDUtMJ9HTF3AgZtR+D63JDiatCK608ArV/hpTHhbUigAACCCCAAAJZAhp+bv9lrdY3kLLnt4XGCsiaiwcIIIAAAggggAACCCCAQO0IbN81YNt29AchyeOP3K92Ok5PEUAAAQQQQAABBBBAIBBY/ZkvWGzZcjQWoYCO+6pP3l51e66hqx9Y3zptWPLHv8wE4cXbHhouW/8VxFQg80N3Jm1wqPBmDju4wT77wWmSnYUX5ZkqFFjuhquO1XDGMBFvsJ4uBocu56lFULKcuqwbAQQQQAABBOpK4PCDu629NW6v7BkiLFlXR5adQQABBBBAAAEEEEBg8QkoJPniy72TIcmWRA3/JWHxHT72GAEEEEAAAQQQQACBQCDW1W2r776PsOQiOx8UkgyOe1dXVe75sWviQVhyxbLC3VN4UdUlT7q2z/7hsWTJKkw+vnHE/ugLg3bGnwyYApnTtROObLSH17e56n1Ep6ZzqqXnNFz1gcsSNRmWVMBzZU9TLXHXZF8bMmOZsUr2PJ1O29DgsCUSTZZoTsy7Kw3WMO915K7guXPWWnr3ztzJi+Lx8utvsZ6LLlkU+8pOIoAAAgggUIzAaDpjT/3yFRsYGrXWlri9avWy4A+LxSzLPAgggAACCCCAAAIIIIBANQhouO1wJUlCktVwVOgDAggggAACCCCAAAJzF0hu22Kbr3z3os01zF2u9pb0Icnmgw6u+s5v3pm2dZ8atB27i+vqeafG7LSjYnbuiQkXXiw++7P5lbQ98sMRe/RH6RnDkb4n7zg1bn/z+1SS9B71djuaHrOXdqfMRdJqoikkqYCngp7V1MZsfpHCVDJlqdSItba1uPBqZb+gOzIyasnhpBGULOIMIyhJULKI04RZEEAAAQQWmcAzL+yx3+weskRTzI45tIew5CI7/uwuAggggAACCCCAAAK1KKA/FPx62x7b05ukkmQtHkD6jAACCCCAAAIIIIDANAKEJafBqZOnmg4+1FZ9+n9ZLYQkPbnCkv/9vmHb8NT01R39/P72sIMbbVWP2atXx6y7zayrbarqY+9gJqhAuXXXmD35bGbaobX9+sK369/VZFed3RKexP06FKiVsGRzotEOWBq3xobqCknqlCAoWYYXBhUly4BawlVSUbKEmKwKAQQQQKDuBF54uc8NVdcX7NdBKzps1YrOuttHdggBBBBAAAEEEEAAAQTqQ6B3IGXPb91rqZG0dXck7KhDlhqVJOvj2LIXCCCAAAIIIIAAAgh4gXTvPtt6w3U29OT3/CRu60Sg/ayz7cAbbrFYlQ63PRPzrQ8N2+fcUNuVbBoK/MvXtJqGBqctDoGMy+fu3Ddig8nZBXUXSqerLWY9XdV7PtZjUHIqcr1QR7kGt9PY3lGDvS5NlxMHrSrNilgLAggggAACdShwyMpOe/VvLQ0qsWjYuh8/u8MGh0frcE/ZJQQQQAABBBBAAAEEEKhVgfEqkntt46ZdQUjysFVddvyR+xGSrNUDSr8RQAABBBBAAAEEEJhGINbVbWvuvNuWXP7BaebiqVoSaGxptZ6rrrODb72jZkOS8l5/UYv9v79os3e44bUXurW5EbavemeTPXl7JyHJhcav8PYaXSpu/6VNtqSjusKI6tfy7nhVhyQrfOjKtnmG3i6Cdtsnb7a+b9xfxJz1N8sR//wf7j/b7vrbMfYIAQQQQACBEgoMp9KusmSvbd81FKx1v6Wttmp5J8Nxl9CYVSGAAAIIIIAAAggggMDsBBSQ3L6r37a/MmhpV0JBVSTXuC97Le1snt2KmBsBBBBAAAEEEEAAAQRqUkBDcW+95g9sZMummuw/nTZrPvq1duCf/WVNDbVdzHF7fOOI/eXDKfvxL8tb5U8Byfe+xQ2z/baEdbdTR66YY1PP81TLUNwaanuFC0nGY9U31Hbu8a/HipIEJXOPcsRjvYHYdNFbI56p70ntZ53jvpVwe33vJHuHAAIIIIBACQX6h0bsV1v22b7+VLDWzvaELV/SZstdcJKGAAIIIIAAAggggAACCCyEgIbY3tM3ZDt3DwcByVis0Q5Z2WGrVizeUXMWwp1tIIAAAggggAACCCBQrQK7vvaA7b77Tkvv3lmtXaRfOQKxZcvtgJtvtc6TT815pr4ebt6ZttseTtoTG9O2c0/p9u24wxvt1GNiBCRLR1pXa+ofStvu/lFLpxd2txSQXOoqW7Ymqj8g6WUISnqJEt6m3Zk3NDhsiUSTJZoT815zg5XnhNr+2dtt71e/OO/+1coK9B/v6rvvq7tvJtSKP/1EAAEEEKhtgT19SVdhsm8yMBlz9dO7Oppc5ZZW63LhyebEwg8rUNui9B4BBBBAAAEEEEAAAQQKCagiwuDwSFY4UvPqc8cBPW1BQLIWqhQU2j+mI4AAAggggAACCCCAQGkECEyWxrGca1EFya7z1lnPukvKuZmqXPdjT4/Y/Y+P2MYtY/b8ltlVmlTlyFcd3GhvPCpm57wubscdUl3DLFclOJ2yhQpM1mJA0p8eBCW9RAlvayUoqV1+yQ3B3bsIhuAmJFnCE5xVIYAAAggsagENyb11R7+9snfYku6+bwpOtrXGgz9cNjfFLO4eq8oLDQEEEEAAAQQQQAABBBCYSSA54qoeuKG09RljYGjUUiOhzxruc8V+3c22vwtIMsT2TJI8jwACCCCAAAIIIIDA4hToe+IHtvfh/2PDP/khVSar4BRobGm19redb11vfkvdV5AslnvfQMZ+tjltm3eO2ZZXMqbHvcNTS3e1mK1e7oqUtDXa6a5y5Or9KFAypcO92QoMpcaC0OSQ+z1LqapMuj/9WkdLzNrcTy1VkMy1IyiZK1KCx7UUlNTu1vO3LPQfcOspb7IDb7jZYl1dJTi6rAIBBBBAAAEEvED/4Ijt7U/aPldtUm+09QdNGgIIIIAAAggggAACCCAwHwF94arDfQmro63JerpbrLMtYVSPnI8oyyKAAAIIIIAAAgggsLgEFJrs/88f2PB/PWEjm56zzPDQ4gKowN6qcFXisCOt7fVvtJajjyEcWYFjwCYRKCSg0KQK4eh2ZDRj7nuqRbVYrMES8QYXimy0RFNjTYcjwztMUDKsUaL7tRaU9Ls9+PQvLPXSFkvv6/WTavo21t1lnW84lYBkTR9FOo8AAgggUEsCGh5vODlqI+mM+3ZSxvSYhgACCCCAAAIIIIAAAgjMJKAgZEsibi3NcUKRM2HxPAIIIIAAAggggAACCMxKIN3ba8mtLgfR12spd0srjUBi1cEW6+yyZt1StKo0qKwFgQUQyIyNWXJkfEP6e2646curbuBAU/XIxoaG8FN1c5+gZBkOZa0GJctAwSoRQAABBBBAAAEEEEAAAQQQQAABBBBAAAEEEEAAAQQQQAABBBBAAAEEEEAAAQQQqKhAPQYlXa6VhgACCCCAAAIIIIAAAggggAACCCCAAAIIIIAAAggggAACCCCAAAIIIIAAAggggAACCNSnAEHJ+jyu7BUCCCCAAAIIIIAAAggggAACCCCAAAIIIIAAAggggAACCCCAAAIIIIAAAggggAACCDgBgpKcBggggAACCCCAAAIIIIAAAggggAACCCCAAAIIIIAAAggggAACCCCAAAIIIIAAAgggULcCBCXr9tCyYwgggAACCCCAAAIIIIAAAggggAACCCCAAAIIIIAAAggggAACCCCAAAIIIIAAAgggQFCScwABBBBAAAEEEEAAAQQQQAABBBBAAAEEEEAAAQQQQAABBBBAAAEEEEAAAQQQQAABBOpWgKBk3R5adgwBBBBAAAEEEEAAAQQQQAABBBBAAAEEEEAAAQQQQAABBBBAAAEEEEAAAQQQQAABBAhKcg4ggAACCCCAAAIIIIAAAggggAACCCCAAAIIIIAAAggggAACCCCAAAIIIIAAAggggEDdChCUrNtDy44hgAACCCCAAAIIIIAAAggggAACCCCAAAIIIIAAAggggAACCCCAAAIIIIAAAggggABBSc4BBBBAAAEEEEAAAQQQQAABBBBAAAEEEEAAAQQQQAABBBBAAAEEEEAAAQQQQAABBBCoWwGCknV7aNkxBBBAAAEEEEAAAQQQQAABBBBAAAEEEEAAAQQQQAABBBBAAAEEEEAAAQQQQAABBBCIj4yMVlRhLJMJtp/JjFkp+pJoaqro/rBxBBBAAAEEEEAAAQQQQAABBBBAAAEEEEAAAQQQQAABBBBAAAEEEEAAAQQQQAABBGpVYMxl+UbT6Tl3X1lAtVGXTfT357yyeS6YntiPeHI4Oc9VlWbx0dFR0898G0HJ+QqyPAIIIIAAAggggAACCCCAAAIIIIAAAggggAACCCCAAAIIIIAAAggggAACCCCAwGIVULiwFLnCoHBihQs5+mPYkEylxuObfsoC32YcqkDi8bjF4rF5b52g5LwJWQECCCCAAAIIIIAAAggggAACCCCAAAIIIIAAAggggAACCCCAAAIIIIAAAggggMAiFci4UaLnU1EyPZoOiiYmEglraGyoqKJCn6psGW9qile2Iw5CQclGd1vpvlQUgo0jgAACCCCAAAIIIIAAAggggAACCCCAAAIIIIAAAggggAACCCCAAAIIIIAAAgggUGEBhRubGueeKxxzQUu1WLzRYrH5F0+cL4eCko3zXQnLI4AAAggggAACCCCAAAIIIIAAAggggAACCCCAAAIIIIAAAggggAACCCCAAAIIIIAAAtUqQFCyWo8M/UIAAQQQQAABBBBAAAEEEEAAAQQQQAABBBBAAAEEEEAAAQQQQAABBBBAAAEEEEAAgXkLEJScNyErQAABBBBAAAEEEEAAAQQQQAABBBBAAAEEEEAAAQQQQAABBBBAAAEEEEAAAQQQQACBahWY+0DiVbpHe/uSVdozuoUAAggggAACCCCAAAIIIIAAAggggAACCCCAAAIIIIAAAggggAACCCCAAAIIIIBAdQvEYo3W0VZf0cL62ht3/vzkuV3VfRbROwQQQAABBBBAAAEEEEAAAQQQQAABBBBAAAEEEEAAAQQQQAABBBBAAAEEEEAAAQSqVGD/nhZ71ZqlVdq7uXWr7oKSq1d2zE3CLTU2NmYjqVFrdInYeDw25/WUasFUcsQaGxss3lT5wyQXtaZE5fsyOjJqmcyYJZqbSkU95/WMjqYtk84ELg0NDXNeTykWTLt+pF1/mtz50uDOm0o2HR8dJ527Oocr2cZcX0ZcX2LuNa20eyUb15jC+rrGyIfXdbYRr+tsD/+I17WXyL/lvUO+iabw3iHahWtMtAvXmGgXTa22awzvHfKPFa/rfBNN4XUd7aKp1fa6Vp/4vYMUphq/d5iyCN/j9w5hjan7/N5hyiL3Hp8JckXGH/PeIdqF9w7RLprKe4doG64x0S5cY6JduMZEu2iqrjH6WxufCbKN+EyQ7eEf8ZnAS2Tf8pkg2yP8iLxDWGPqPteYKYvwPa4xYY2p+9V2jeF1PXVswvdK+bruaK18Liu8b6W4X/nUWyn2IrSOQ1Z2hh7N7q4udoMDg0G4q6WleXYLl2Hu/r6BINjV2tZahrXPbpUD/YNmLu/W3t42uwXLMPfQ4LCl02nr6Gwvw9pnt8rkcDII4bV1tFpjQ2VDeKlkylKpEWtta3HnTWWDvgomyqa5JeGCm5W9cOpc0TmTSDS5EF5idge4xHNzjSkMqmuM3ljxus424nWd7eEf8br2Evm3vHfIN9EU3jtEu3CNiXbhGhPtoqnVdo3hvUP+seJ1nW+iKbyuo100tdpe1/zeIf9Y8XuHfBNN4fcO0S783iHaRVP5TBBtw3uHaBfeO0S7aCrvHaJtuMZEu3CNiXbhGhPtoqm6xqgQCH+LzDbiM0G2h3/EZwIvkX3LZ4Jsj/Aj8g5hjan7XGOmLML3uMaENabuV9s1htf11LEJ36um13W4X9Vyv7LJrmpRoB8IIIAAAggggAACCCCAAAIIIIAAAggggAACCCCAAAIIIIAAAggggAACCCCAAAIIIFCXAgQl6/KwslMIIIAAAggggAACCCCAAAIIIIAAAggggAACCCCAAAIIIIAAAggggAACCCCAAAIIICABgpKcBwgggAACCCCAAAIIIIAAAggggAACCCCAAAIIIIAAAggggAACCCCAAAIIIIAAAgggULcCBCXr9tCyYwgggAACCCCAAAIIIIAAAggggAACCCCAAAIIIIAAAggggAACCCCAAAIIIIAAAgggQFCScwABBBBAAAEEEEAAAQQQQAABBBBAAAEEEEAAAQQQQAABBBBAAAEEEEAAAQQQQAABBOpWgKBk3R5adgwBBBBAAAEEEEAAAQQQQAABBBBAAAEEEEAAAQQQQAABBBBAAAEEEEAAAQQQQAABBAhKcg4ggAACCCCAAAIIIIAAAggggAACCCCAAAIIIIAAAggggAACCCCAAAIIIIAAAggggEDdChCUrNtDy44hgAACCCCAAAIIIIAAAggggAACCCCAAAIIIIAAAggggAACCCCAAAIIIIAAAggggABBSc4BBBBAAAEEEEAAAQQQQAABBBBAAAEEEEAAAQQQQAABBBBAAAEEEEAAAQQQQAABBBCoWwGCknV7aNkxBBBAAAEEEEAAAQQQQAABBBBAAAEEEEAAAQQQQAABBBBAAAEEEEAAAQQQQAABBBAgKMk5gAACCCCAAAIIIIAAAggggAACCCCAAAIIIIAAAggggAACCCCAAAIIIIAAAggggAACdStAULJuDy07hgACCCCAAAIIIIAAAggggAACCCCAAAIIIIAAAggggAACCCCAAAIIIIAAAggggAACBCU5BxBAAAEEEEAAAQQQQAABBBBAAAEEEEAAAQQQQAABBBBAAAEEEEAAAQQQQAABBBBAoG4FCErW7aFlxxBAAAEEEEAAAQQQQAABBBBAAAEEEEAAAQQQQAABBBBAAAEEEEAAAQQQQAABBBBAgKAk5wACCCCAAAIIIIAAAggggAACCCCAAAIIIIAAAggggAACCCCAAAIIIIAAAggggAACCNStAEHJuj207BgCCCCAAAIIIIAAAggggAACCCCAAAIIIIAAAggggAACCCCAAAIIIIAAAggggAACCBCU5BxAAAEEEEAAAQQQQAABBBBAAAEEEEAAAQQQQAABBBBAAAEEEEAAAQQQQAABBBBAAIG6FSAoWbeHlh1DAAEEEEAAAQQQQAABBBBAAAEEEEAAAQQQQAABBBBAAAEEEEAAAQQQQAABBBBAAAGCkpwDCCCAAAIIIIAAAggggAACCCCAAAIIIIAAAggggAACCCCAAAIIIIAAAggggAACCCBQtwIEJev20LJjCCCAAAIIIIAAAggggAACCCCAAAIIIIAAAggggAACCCCAAAIIIIAAAggggAACCCBAUJJzAAEEEEAAAQQQQAABBBBAAAEEEEAAAQQQQAABBBBAAAEEEEAAAQQQQAABBBBAAAEE6laAoGTdHlp2DAEEEEAAAQQQQAABBBBAAAEEEEAAAQQQQAABBBBAAAEEEEAAAQQQQAABBBBAAAEECEpyDiCAAAIIIIAAAggggAACCCCAAAIIIIAAAgiUXCAzNlbydbJCBBBAAAEEEEAAAQQQQAABBBBAAAEE5iJAUHIuaiyDAAIIIIAAAggggAACCCCAAAIIIIAAAggggAACCCCAAAIIIIAAAggggAACCCCAAAI1IRBPp9MV7WgmnQm2r28XV7wvmYlvOLubSvfFHxR96bpa+qI+VUNfxia+iV4NfclMnDM6j8caKvsNef8Nff+a8udQJW4zE9eVMffyrvRx8h5cY6LPBK4x+S68rvNNNIXXdQEX3jtEw4SmVvr/AXWF9w6hAxK6y3uHEEboLu8dQhgRd3nvkI/Ce4d8E03hvUMBF947RMOEpvLeIYTh7nKNyfbwj7jGeInsW3++GL9PzIZxj/hMkEcSTOAzQQEX/mYRDTMxlc8E+TxcY/JNNIVrTAEXrjHRMKGpfCYIYbi7/j0ef4vMceFvkdkgE4/8+VJNnwl475B/qHjvkG+iKbx3KODCe4domNBU3juEMNxd/38B7x1yXCbeOzT09vZVNt2V3S8eIYAAAggggAACCCCAAAIIIIAAAggggAACCCCAAAIIIIAAAggggAACCCCAAAIIIIAAAiUTiMeb4iVb2VxWNJbJuIpzGWtsbLTGWIVHAndfZxgdTVtDY4PFYrG57E5JlxkdGa2avqSdi1osXnkX9UXfsqj0uSuPyb7IpaFBkyrWlAbPuNdTvAr64l/Xeh3p9VTJ5vvCNSb/KFTbNYbXdf4x4nWdb6IpvK6jXTS12l7X6hPvHaQw1XjvMGURvudf17x3CKu4+3w+yQGZejj5Wqrw51n1aLIvVfA+nPcOU+dI+J6/xvCZIKwyfp/3DvkmmjL5uuYakwXENSaLY/IB15hJirw7wTXG/b6MzwTZNJPXGN47ZMH41xKfCbJY+EyQwxF+qNeSGteYsErofQzXmCwYrjFZHFMPqvH3Drx3mDo+E/d475BHEkzgdR3twu8TC7i4ybx3iLbhGhPtwjUm2qXarjG8rqOPE6/raBf/uo63tDRHz7FAU1UCdWhwOAh3JZoTC7TV6M2o/Ojo6GAQkqy0i3rY74KSje4DQTX0ZaB/0AUBrSr6ovNF5001uCSHkzbijlOiJeGOVWWDvqlkylKpjDUlmioe9JVJOp10YdaYNTU1Rb/gFmgq15jC0FV3jXFd5XWdfbx4XWd7+Ee8rr1E/m3Vva5575B3kHjvkEcSTOC9Q7QLn0+iXTQ1+HzibnnvkG3Ee4dsD/+I9w5eIv+W9w75JprC7x2iXbjGRLtwjYl20VRdY/h9Yr4PnwnyTTSFzwTRLnwmiHbRVP5mEW3DNSbahWtMtEs1XmN475B/rHhd55toCq/raJdqfF2Td8g/VvzeId9EU/i9Q7QLv3eIdtFUPhNE2/DeIdrFv3eobLIrum9MRQABBBBAAAEEEEAAAQQQQAABBBBAAAEEEEAAAQQQQAABBBBAAAEEEEAAAQQQQAABBEoiQFCyJIysBAEEEEAAAQQQQAABBBBAAAEEEEAAAQQQQAABBBBAAAEEEEAAAQQQQAABBBBAAAEEqlGAoGQ1HhX6hAACCCCAAAIIIIAAAggggAACCCCAAAIIIIAAAggggAACCCCAAAIIIIAAAggggAACJREgKFkSRlaCAAIIIIAAAggggAACCCCAAAIIIIAAAggggAACCCCAAAIIIIAAAggggAACCCCAAALVKEBQshqPCn1CAAEEEEAAAQQQQAABBBBAAAEEEEAAAQQQQAABBBBAAAEEEEAAAQQQQAABBBBAAIGSCBCULAkjK0EAAQQQQAABBBBAAAEEEEAAAQQQQAABBBBAAAEEEEAAAQQQQAABBBBAAAEEEEAAgWoU+P/jkyGwUvmGUQAAAABJRU5ErkJggg==;" vertex="1" parent="1">
          <mxGeometry x="470" y="150" width="2634" height="172" as="geometry" />
        </mxCell>
        <mxCell id="W-8pl-CKNFdrs4j0YctX-5" value="" style="verticalLabelPosition=bottom;verticalAlign=top;html=1;shape=mxgraph.basic.rect;fillColor2=none;strokeWidth=1;size=20;indent=5;opacity=0;" vertex="1" parent="1">
          <mxGeometry x="1340" y="400" width="120" height="60" as="geometry" />
        </mxCell>
        <mxCell id="W-8pl-CKNFdrs4j0YctX-6" value="" style="verticalLabelPosition=bottom;verticalAlign=top;html=1;shape=mxgraph.basic.rect;fillColor2=none;strokeWidth=4;size=20;indent=5;strokeColor=#CC0000;opacity=0;" vertex="1" parent="1">
          <mxGeometry x="550" y="260" width="440" height="40" as="geometry" />
        </mxCell>
        <mxCell id="W-8pl-CKNFdrs4j0YctX-8" value="" style="rounded=0;whiteSpace=wrap;html=1;strokeWidth=1;strokeColor=#CC0000;fillColor=none;" vertex="1" parent="1">
          <mxGeometry x="530" y="180" width="2510" height="110" as="geometry" />
        </mxCell>
        <mxCell id="W-8pl-CKNFdrs4j0YctX-9" value="" style="rounded=0;whiteSpace=wrap;html=1;strokeWidth=1;strokeColor=#CC0000;fillColor=none;" vertex="1" parent="1">
          <mxGeometry x="540" y="200" width="250" height="70" as="geometry" />
        </mxCell>
        <mxCell id="W-8pl-CKNFdrs4j0YctX-11" value="" style="rounded=0;whiteSpace=wrap;html=1;strokeWidth=1;strokeColor=#CC0000;fillColor=none;" vertex="1" parent="1">
          <mxGeometry x="1050" y="200" width="850" height="70" as="geometry" />
        </mxCell>
        <mxCell id="W-8pl-CKNFdrs4j0YctX-12" value="" style="rounded=0;whiteSpace=wrap;html=1;strokeWidth=1;strokeColor=#CC0000;fillColor=none;" vertex="1" parent="1">
          <mxGeometry x="2410" y="200" width="540" height="70" as="geometry" />
        </mxCell>
        <mxCell id="W-8pl-CKNFdrs4j0YctX-14" value="" style="rounded=0;whiteSpace=wrap;html=1;strokeWidth=1;strokeColor=#CC0000;fillColor=none;" vertex="1" parent="1">
          <mxGeometry x="2950" y="200" width="80" height="70" as="geometry" />
        </mxCell>
        <mxCell id="W-8pl-CKNFdrs4j0YctX-15" value="" style="rounded=0;whiteSpace=wrap;html=1;strokeWidth=1;strokeColor=#CC0000;fillColor=none;" vertex="1" parent="1">
          <mxGeometry x="2410" y="190" width="620" height="90" as="geometry" />
        </mxCell>
        <mxCell id="W-8pl-CKNFdrs4j0YctX-16" value="" style="rounded=0;whiteSpace=wrap;html=1;strokeWidth=1;strokeColor=#CC0000;fillColor=none;" vertex="1" parent="1">
          <mxGeometry x="1910" y="200" width="230" height="70" as="geometry" />
        </mxCell>
        <mxCell id="W-8pl-CKNFdrs4j0YctX-17" value="" style="rounded=0;whiteSpace=wrap;html=1;strokeWidth=1;strokeColor=#CC0000;fillColor=none;" vertex="1" parent="1">
          <mxGeometry x="790" y="190" width="1610" height="90" as="geometry" />
        </mxCell>
        <mxCell id="W-8pl-CKNFdrs4j0YctX-18" value="" style="rounded=0;whiteSpace=wrap;html=1;strokeWidth=1;strokeColor=#CC0000;fillColor=none;" vertex="1" parent="1">
          <mxGeometry x="540" y="190" width="250" height="90" as="geometry" />
        </mxCell>
        <mxCell id="W-8pl-CKNFdrs4j0YctX-20" value="" style="endArrow=classic;html=1;rounded=0;entryX=0.194;entryY=0.889;entryDx=0;entryDy=0;entryPerimeter=0;" edge="1" parent="1" target="W-8pl-CKNFdrs4j0YctX-15">
          <mxGeometry width="50" height="50" relative="1" as="geometry">
            <mxPoint x="2700" y="510" as="sourcePoint" />
            <mxPoint x="2370" y="210" as="targetPoint" />
          </mxGeometry>
        </mxCell>
        <mxCell id="W-8pl-CKNFdrs4j0YctX-21" value="" style="rounded=0;whiteSpace=wrap;html=1;strokeWidth=1;strokeColor=#CC0000;fillColor=none;" vertex="1" parent="1">
          <mxGeometry x="2420" y="205" width="200" height="60" as="geometry" />
        </mxCell>
        <mxCell id="W-8pl-CKNFdrs4j0YctX-22" value="" style="rounded=0;whiteSpace=wrap;html=1;strokeWidth=1;strokeColor=#CC0000;fillColor=none;" vertex="1" parent="1">
          <mxGeometry x="2620" y="205" width="170" height="60" as="geometry" />
        </mxCell>
        <mxCell id="W-8pl-CKNFdrs4j0YctX-23" value="" style="rounded=0;whiteSpace=wrap;html=1;strokeWidth=1;strokeColor=#CC0000;fillColor=none;" vertex="1" parent="1">
          <mxGeometry x="2790" y="205" width="80" height="60" as="geometry" />
        </mxCell>
        <mxCell id="W-8pl-CKNFdrs4j0YctX-24" value="" style="rounded=0;whiteSpace=wrap;html=1;strokeWidth=1;strokeColor=#CC0000;fillColor=none;" vertex="1" parent="1">
          <mxGeometry x="2870" y="205" width="80" height="60" as="geometry" />
        </mxCell>
        <mxCell id="W-8pl-CKNFdrs4j0YctX-25" value="&lt;div style=&quot;background-color:#2b2b2b;color:#a9b7c6&quot;&gt;&lt;pre style=&quot;font-family:&#39;JetBrains Mono&#39;,monospace;font-size:11.3pt;&quot;&gt;&lt;span style=&quot;color:#a5c261;&quot;&gt;ziw-top-nav__end-box__actions&lt;/span&gt;&lt;/pre&gt;&lt;/div&gt;" style="text;whiteSpace=wrap;html=1;" vertex="1" parent="1">
          <mxGeometry x="2580" y="490" width="300" height="70" as="geometry" />
        </mxCell>
        <mxCell id="W-8pl-CKNFdrs4j0YctX-27" value="" style="endArrow=classic;html=1;rounded=0;" edge="1" parent="1">
          <mxGeometry width="50" height="50" relative="1" as="geometry">
            <mxPoint x="2860" y="410" as="sourcePoint" />
            <mxPoint x="2975" y="270" as="targetPoint" />
          </mxGeometry>
        </mxCell>
        <mxCell id="W-8pl-CKNFdrs4j0YctX-28" value="&lt;div style=&quot;background-color:#2b2b2b;color:#a9b7c6&quot;&gt;&lt;pre style=&quot;font-family:&#39;JetBrains Mono&#39;,monospace;font-size:11.3pt;&quot;&gt;&lt;span style=&quot;color:#a5c261;&quot;&gt;ziw-top-nav__end-box__user-menu&lt;/span&gt;&lt;/pre&gt;&lt;/div&gt;" style="text;whiteSpace=wrap;html=1;" vertex="1" parent="1">
          <mxGeometry x="2755" y="390" width="310" height="70" as="geometry" />
        </mxCell>
        <mxCell id="W-8pl-CKNFdrs4j0YctX-29" value="&lt;div style=&quot;background-color:#2b2b2b;color:#a9b7c6&quot;&gt;&lt;pre style=&quot;font-family:&#39;JetBrains Mono&#39;,monospace;font-size:11.3pt;&quot;&gt;&lt;span style=&quot;color:#a5c261;&quot;&gt;ziw-top-nav__end-box&lt;/span&gt;&lt;/pre&gt;&lt;/div&gt;" style="endArrow=classic;html=1;rounded=0;" edge="1" parent="1">
          <mxGeometry x="-1" y="-22" width="50" height="50" relative="1" as="geometry">
            <mxPoint x="2440" y="380" as="sourcePoint" />
            <mxPoint x="2450" y="280" as="targetPoint" />
            <mxPoint x="-12" y="18" as="offset" />
          </mxGeometry>
        </mxCell>
        <mxCell id="W-8pl-CKNFdrs4j0YctX-31" value="" style="endArrow=classic;html=1;rounded=0;entryX=0.787;entryY=1.018;entryDx=0;entryDy=0;entryPerimeter=0;" edge="1" parent="1" target="W-8pl-CKNFdrs4j0YctX-17">
          <mxGeometry width="50" height="50" relative="1" as="geometry">
            <mxPoint x="2050" y="370" as="sourcePoint" />
            <mxPoint x="2140" y="340" as="targetPoint" />
          </mxGeometry>
        </mxCell>
        <mxCell id="W-8pl-CKNFdrs4j0YctX-32" value="&lt;div style=&quot;background-color:#2b2b2b;color:#a9b7c6&quot;&gt;&lt;pre style=&quot;font-family:&#39;JetBrains Mono&#39;,monospace;font-size:11.3pt;&quot;&gt;&lt;span style=&quot;color:#a5c261;&quot;&gt;ziw-top-nav__center-box&lt;/span&gt;&lt;/pre&gt;&lt;/div&gt;" style="text;whiteSpace=wrap;html=1;" vertex="1" parent="1">
          <mxGeometry x="1960" y="360" width="240" height="70" as="geometry" />
        </mxCell>
        <mxCell id="W-8pl-CKNFdrs4j0YctX-33" value="" style="endArrow=classic;html=1;rounded=0;entryX=0.75;entryY=1;entryDx=0;entryDy=0;" edge="1" parent="1" target="W-8pl-CKNFdrs4j0YctX-18">
          <mxGeometry width="50" height="50" relative="1" as="geometry">
            <mxPoint x="690" y="400" as="sourcePoint" />
            <mxPoint x="1280" y="260" as="targetPoint" />
          </mxGeometry>
        </mxCell>
        <mxCell id="W-8pl-CKNFdrs4j0YctX-34" value="&lt;div style=&quot;background-color:#2b2b2b;color:#a9b7c6&quot;&gt;&lt;pre style=&quot;font-family:&#39;JetBrains Mono&#39;,monospace;font-size:11.3pt;&quot;&gt;&lt;span style=&quot;color:#a5c261;&quot;&gt;ziw-top-nav__start-box&lt;/span&gt;&lt;/pre&gt;&lt;/div&gt;" style="text;whiteSpace=wrap;html=1;" vertex="1" parent="1">
          <mxGeometry x="610" y="390" width="230" height="70" as="geometry" />
        </mxCell>
        <mxCell id="W-8pl-CKNFdrs4j0YctX-35" value="" style="endArrow=classic;html=1;rounded=0;" edge="1" parent="1">
          <mxGeometry width="50" height="50" relative="1" as="geometry">
            <mxPoint x="890" y="120" as="sourcePoint" />
            <mxPoint x="940" y="180" as="targetPoint" />
          </mxGeometry>
        </mxCell>
        <mxCell id="W-8pl-CKNFdrs4j0YctX-36" value="&lt;div style=&quot;background-color:#2b2b2b;color:#a9b7c6&quot;&gt;&lt;pre style=&quot;font-family:&#39;JetBrains Mono&#39;,monospace;font-size:11.3pt;&quot;&gt;&lt;span style=&quot;color:#a5c261;&quot;&gt;ziw-top-nav__container&lt;/span&gt;&lt;/pre&gt;&lt;/div&gt;" style="text;whiteSpace=wrap;html=1;" vertex="1" parent="1">
          <mxGeometry x="780" y="70" width="230" height="70" as="geometry" />
        </mxCell>
      </root>
    </mxGraphModel>
  </diagram>
</mxfile>
